<?xml version="1.0" encoding="UTF-8" standalone="no"?>
<!-- Created with Inkscape (http://www.inkscape.org/) -->
<svg
   xmlns:svg="http://www.w3.org/2000/svg"
   xmlns="http://www.w3.org/2000/svg"
   version="1.0"
   width="1100.1968"
   height="389.76376"
   id="svg2530">
  <defs
     id="defs2532" />
  <g
     transform="translate(231.13547,-280.9644)"
     id="layer1">
    <g
       transform="translate(17.724719,17.716527)"
       id="g4397">
      <path
         d="M 247.73941,440.00276 L 242.16762,440.00276 L 242.16762,472.78365 L 247.73941,472.78365 L 247.73941,440.00276 z "
         style="fill:#000000;fill-rule:evenodd;stroke:none"
         id="path3368" />
      <path
         d="M 315.99424,472.78365 L 321.10173,472.78365 L 321.10173,425.88749 L 315.99424,425.88749 L 315.99424,472.78365 z "
         style="fill:#000000;fill-rule:nonzero;stroke:none"
         id="path3370" />
      <path
         d="M 54.118601,370.35499 L 49.011111,370.35499 L 49.011111,403.13588 L 54.118601,403.13588 L 54.118601,370.35499 z "
         style="fill:#000000;fill-rule:evenodd;stroke:none"
         id="path3372" />
      <path
         d="M 265.38353,403.13588 L 270.49102,403.13588 L 270.49102,356.23972 L 265.38353,356.23972 L 265.38353,403.13588 z "
         style="fill:#000000;fill-rule:nonzero;stroke:none"
         id="path3374" />
      <path
         d="M 284.88489,370.35499 L 279.7774,370.35499 L 279.7774,403.13588 L 284.88489,403.13588 L 284.88489,370.35499 z "
         style="fill:#000000;fill-rule:evenodd;stroke:none"
         id="path3376" />
      <path
         d="M 809.10047,370.35499 L 803.99297,370.35499 L 803.99297,403.13588 L 809.10047,403.13588 L 809.10047,370.35499 z "
         style="fill:#000000;fill-rule:evenodd;stroke:none"
         id="path3378" />
      <path
         d="M 803.58437,361.94152 L 809.56477,361.94152 L 809.56477,356.22579 L 803.58437,356.22579 L 803.58437,361.94152"
         style="fill:#000000;fill-rule:evenodd;stroke:none"
         id="path3382" />
      <path
         d="M 248.20375,300.70722 L 243.09626,300.70722 L 243.09626,333.48811 L 248.20375,333.48811 L 248.20375,300.70722 z "
         style="fill:#000000;fill-rule:evenodd;stroke:none"
         id="path3384" />
      <path
         d="M 295.56425,300.70722 L 290.45672,300.70722 L 290.45672,333.48811 L 295.56425,333.48811 L 295.56425,300.70722 z "
         style="fill:#000000;fill-rule:evenodd;stroke:none"
         id="path3386" />
      <path
         d="M 411.17954,300.70722 L 405.60771,300.70722 L 405.60771,333.48811 L 411.17954,333.48811 L 411.17954,300.70722 z "
         style="fill:#000000;fill-rule:evenodd;stroke:none"
         id="path3388" />
      <path
         d="M 18.310381,461.76072 C 18.310381,467.21182 14.730481,469.35235 11.870271,469.35235 C 8.1000014,469.35235 6.2798714,466.6918 6.2798714,462.7358 L 6.2798714,439.97954 L 0.94950143,439.97954 L 0.94950143,465.00165 C 0.94950143,470.59205 4.0697414,473.4569 9.7901214,473.4569 C 13.230711,473.4569 16.355591,471.82715 18.110711,468.84622 L 18.310381,468.84622 L 18.310381,472.80223 L 23.961141,472.80223 C 23.766121,470.5224 23.636101,468.25655 23.636101,465.97672 L 23.636101,439.97954 L 18.310381,439.97954 L 18.310381,461.76072"
         style="fill:#000000;fill-rule:nonzero;stroke:none"
         id="path3392" />
      <path
         d="M 56.403071,472.80223 L 56.403071,450.05061 C 56.403071,443.55015 54.643301,439.32951 47.627421,439.32951 C 43.397491,439.32951 40.927331,440.49496 38.847171,444.20483 L 38.596431,444.20483 L 38.596431,439.97954 L 32.936411,439.97954 C 33.131441,442.25472 33.256771,444.52522 33.256771,446.80504 L 33.256771,472.80223 L 38.596431,472.80223 L 38.596431,453.36584 C 38.596431,448.88052 39.436881,443.68016 45.282631,443.68016 C 49.832951,443.68016 51.068051,446.54501 51.068051,450.05061 L 51.068051,472.80223 L 56.403071,472.80223"
         style="fill:#000000;fill-rule:nonzero;stroke:none"
         id="path3396" />
      <path
         d="M 82.595271,455.05595 C 82.595271,461.68643 82.595271,469.10625 76.619471,469.10625 C 69.924021,469.10625 69.924021,461.94646 69.924021,457.00609 C 69.924021,448.23513 70.708711,443.68016 76.429131,443.68016 C 82.335241,443.68016 82.595271,450.70529 82.595271,455.05595 z M 82.595271,443.29476 L 82.404891,443.29476 C 80.584761,440.69458 78.309621,439.32951 75.194031,439.32951 C 64.593651,439.32951 64.333621,448.75051 64.333621,456.94573 C 64.333621,471.3721 69.663991,473.4569 74.929361,473.4569 C 78.374631,473.4569 80.645131,471.96181 82.465261,468.90194 L 82.595271,468.90194 L 82.595271,472.80223 L 87.930291,472.80223 L 87.930291,425.87356 L 82.595271,425.87356 L 82.595271,443.29476"
         style="fill:#000000;fill-rule:evenodd;stroke:none"
         id="path3400" />
      <path
         d="M 136.02905,472.80223 L 136.02905,467.61115 L 117.43771,467.61115 L 117.43771,451.35537 L 134.34357,451.35537 L 134.34357,446.15033 L 117.43771,446.15033 L 117.43771,431.06928 L 135.639,431.06928 L 135.639,425.87356 L 111.45731,425.87356 L 111.45731,472.80223 L 136.02905,472.80223"
         style="fill:#000000;fill-rule:nonzero;stroke:none"
         id="path3404" />
      <path
         d="M 166.19579,472.80223 L 166.19579,450.05061 C 166.19579,443.55015 164.44067,439.32951 157.41554,439.32951 C 153.19026,439.32951 150.72009,440.49496 148.64458,444.20483 L 148.3799,444.20483 L 148.3799,439.97954 L 142.7245,439.97954 C 142.92416,442.25472 143.05418,444.52522 143.05418,446.80504 L 143.05418,472.80223 L 148.3799,472.80223 L 148.3799,453.36584 C 148.3799,448.88052 149.22496,443.68016 155.08004,443.68016 C 159.62107,443.68016 160.86078,446.54501 160.86078,450.05061 L 160.86078,472.80223 L 166.19579,472.80223"
         style="fill:#000000;fill-rule:nonzero;stroke:none"
         id="path3408" />
      <path
         d="M 170.74612,439.97954 L 170.74612,444.00984 L 176.14149,444.00984 L 176.14149,467.34648 C 176.14149,471.11211 178.41667,473.19688 183.48702,473.19688 C 185.24214,473.19688 186.9973,472.80223 188.75706,472.67685 L 188.75706,468.58158 C 187.57768,468.70692 186.73727,468.84622 186.34258,468.84622 C 181.46726,468.84622 181.46726,466.1671 181.46726,464.09623 L 181.46726,444.00984 L 188.62241,444.00984 L 188.62241,439.97954 L 181.46726,439.97954 L 181.46726,431.26894 L 176.14149,433.66945 L 176.14149,439.97954 L 170.74612,439.97954"
         style="fill:#000000;fill-rule:nonzero;stroke:none"
         id="path3412" />
      <path
         d="M 199.65462,472.80223 L 206.80512,472.80223 L 214.15064,444.8549 L 214.28062,444.8549 L 221.30114,472.80223 L 228.447,472.80223 L 237.22261,439.97954 L 231.57185,439.97954 L 225.07602,468.25655 L 224.94605,468.25655 L 218.24592,439.97954 L 210.70537,439.97954 L 203.42485,468.25655 L 203.29484,468.25655 L 197.37944,439.97954 L 191.4594,439.97954 L 199.65462,472.80223"
         style="fill:#000000;fill-rule:nonzero;stroke:none"
         id="path3416" />
      <path
         d="M 242.03296,431.5893 L 248.00873,431.5893 L 248.00873,425.87356 L 242.03296,425.87356 L 242.03296,431.5893"
         style="fill:#000000;fill-rule:evenodd;stroke:none"
         id="path3420" />
      <path
         d="M 278.95092,450.50098 C 279.27131,443.16479 275.44532,439.32951 268.8752,439.32951 C 257.49477,439.32951 256.38968,447.25541 256.38968,456.87608 C 256.38968,471.3721 261.91508,473.4569 268.8752,473.4569 C 272.51546,473.4569 279.40129,471.11211 279.21095,461.8861 L 273.6159,461.8861 C 273.81557,467.8015 270.1103,469.10625 268.8752,469.10625 C 263.34981,469.10625 261.98473,465.26168 261.98473,454.60094 C 261.98473,445.63031 264.77529,443.68016 268.8752,443.68016 C 270.89035,443.68016 273.55089,445.11954 273.42552,450.50098 L 278.95092,450.50098"
         style="fill:#000000;fill-rule:nonzero;stroke:none"
         id="path3424" />
      <path
         d="M 292.41615,454.41056 L 292.54152,454.41056 L 304.24234,472.80223 L 311.0028,472.80223 L 298.13192,454.08556 L 309.04805,439.97954 L 302.54759,439.97954 L 292.54152,454.15053 L 292.41615,454.15053 L 292.41615,425.87356 L 287.07649,425.87356 L 287.07649,472.80223 L 292.41615,472.80223 L 292.41615,454.41056"
         style="fill:#000000;fill-rule:nonzero;stroke:none"
         id="path3428" />
      <path
         d="M 347.89758,461.76072 C 347.89758,467.21182 344.32233,469.35235 341.45747,469.35235 C 337.6872,469.35235 335.87172,466.6918 335.87172,462.7358 L 335.87172,439.97954 L 330.54134,439.97954 L 330.54134,465.00165 C 330.54134,470.59205 333.66619,473.4569 339.38196,473.4569 C 342.82255,473.4569 345.94743,471.82715 347.70255,468.84622 L 347.89758,468.84622 L 347.89758,472.80223 L 353.56223,472.80223 C 353.35796,470.5224 353.22795,468.25655 353.22795,465.97672 L 353.22795,439.97954 L 347.89758,439.97954 L 347.89758,461.76072"
         style="fill:#000000;fill-rule:nonzero;stroke:none"
         id="path3432" />
      <path
         d="M 386.31991,472.80223 L 386.31991,450.05061 C 386.31991,443.55015 384.56015,439.32951 377.53502,439.32951 C 373.30973,439.32951 370.84417,440.49496 368.77334,444.20483 L 368.51331,444.20483 L 368.51331,439.97954 L 362.84861,439.97954 C 363.04364,442.25472 363.17829,444.52522 363.17829,446.80504 L 363.17829,472.80223 L 368.51331,472.80223 L 368.51331,453.36584 C 368.51331,448.88052 369.34908,443.68016 375.19951,443.68016 C 379.75448,443.68016 380.98954,446.54501 380.98954,450.05061 L 380.98954,472.80223 L 386.31991,472.80223"
         style="fill:#000000;fill-rule:nonzero;stroke:none"
         id="path3436" />
      <path
         d="M 412.84644,456.22604 C 412.84644,460.78101 413.03217,468.38192 406.60136,468.38192 C 402.64071,468.38192 400.23091,465.921 400.23091,455.38563 C 400.23091,451.02569 400.42593,443.74981 406.47599,443.74981 C 413.16219,443.74981 412.84644,451.35537 412.84644,456.22604 z M 412.71642,444.00984 L 412.58641,444.00984 C 411.09132,440.8246 408.36112,439.32951 404.91589,439.32951 C 402.24606,439.32951 394.64051,440.29993 394.64051,455.38563 C 394.64051,465.13631 396.40027,472.80223 405.30125,472.80223 C 408.15681,472.80223 411.15168,471.30249 412.51212,468.70692 L 412.71642,468.70692 L 412.71642,475.53242 C 412.71642,478.91265 410.68734,481.18783 406.99601,481.18783 C 404.06619,481.18783 402.05104,479.50232 401.98139,476.43784 L 396.00098,476.43784 C 395.55057,482.49254 400.49094,485.21345 405.94668,485.21345 C 413.16219,485.21345 418.03751,483.46761 418.03751,476.12209 L 418.03751,439.97954 L 412.71642,439.97954 L 412.71642,444.00984"
         style="fill:#000000;fill-rule:evenodd;stroke:none"
         id="path3440" />
      <path
         d="M 6.1498614,403.15445 L 13.305001,403.15445 L 20.650531,375.20713 L 20.780541,375.20713 L 27.791741,403.15445 L 34.946881,403.15445 L 43.717891,370.33177 L 38.067121,370.33177 L 31.566661,398.60413 L 31.436641,398.60413 L 24.736551,370.33177 L 17.196001,370.33177 L 9.9154914,398.60413 L 9.7901214,398.60413 L 3.8747214,370.33177 L -2.0407186,370.33177 L 6.1498614,403.15445"
         style="fill:#000000;fill-rule:nonzero;stroke:none"
         id="path3444" />
      <path
         d="M 48.528201,361.94152 L 54.508651,361.94152 L 54.508651,356.22579 L 48.528201,356.22579 L 48.528201,361.94152"
         style="fill:#000000;fill-rule:evenodd;stroke:none"
         id="path3448" />
      <path
         d="M 68.935021,370.33177 L 63.600001,370.33177 L 63.600001,403.15445 L 68.935021,403.15445 L 68.935021,383.78771 C 68.935021,379.36276 70.425471,374.87745 76.340911,374.87745 C 77.311331,374.87745 78.226041,375.07711 79.201111,375.20713 L 79.201111,369.68173 C 74.000721,369.68173 71.270531,370.26212 69.065031,375.26749 L 68.935021,375.26749 L 68.935021,370.33177"
         style="fill:#000000;fill-rule:nonzero;stroke:none"
         id="path3452" />
      <path
         d="M 81.829151,370.33177 L 81.829151,374.36207 L 87.219891,374.36207 L 87.219891,397.69871 C 87.219891,401.46898 89.499671,403.5491 94.565411,403.5491 C 96.325181,403.5491 98.080301,403.15445 99.835421,403.02444 L 99.835421,398.93377 C 98.660681,399.06379 97.820271,399.1938 97.430231,399.1938 C 92.554901,399.1938 92.554901,396.51933 92.554901,394.44382 L 92.554901,374.36207 L 99.700761,374.36207 L 99.700761,370.33177 L 92.554901,370.33177 L 92.554901,361.62117 L 87.219891,364.02168 L 87.219891,370.33177 L 81.829151,370.33177"
         style="fill:#000000;fill-rule:nonzero;stroke:none"
         id="path3456" />
      <path
         d="M 125.81867,393.79378 C 125.81867,383.78771 109.44215,383.91309 109.44215,378.12766 C 109.44215,375.26749 111.65233,373.712 114.51254,373.712 C 117.89276,373.712 119.71289,375.52748 119.64324,378.97276 L 125.55864,378.97276 C 126.00905,372.47693 121.01296,369.68173 115.16257,369.68173 C 105.92727,369.68173 103.84247,375.20713 103.84247,378.64772 C 103.84247,388.46341 120.22827,388.59342 120.22827,394.44382 C 120.22827,397.82872 117.76275,399.45383 114.57754,399.45383 C 109.18213,399.45383 109.11251,395.02888 109.11251,393.14839 L 103.0717,393.14839 C 102.87204,400.68429 107.29703,403.80913 114.37788,403.80913 C 120.88299,403.80913 125.81867,401.00929 125.81867,393.79378"
         style="fill:#000000;fill-rule:nonzero;stroke:none"
         id="path3460" />
      <path
         d="M 154.9268,380.85321 C 155.25184,373.51701 151.41656,369.68173 144.85573,369.68173 C 133.47994,369.68173 132.37486,377.60764 132.37486,387.22831 C 132.37486,401.72897 137.89561,403.80913 144.85573,403.80913 C 148.49599,403.80913 155.38646,401.46898 155.19148,392.23368 L 149.60107,392.23368 C 149.79145,398.14908 146.09083,399.45383 144.85573,399.45383 C 139.32569,399.45383 137.96062,395.61855 137.96062,384.95316 C 137.96062,375.98253 140.76046,374.03239 144.85573,374.03239 C 146.87088,374.03239 149.53142,375.47176 149.40141,380.85321 L 154.9268,380.85321"
         style="fill:#000000;fill-rule:nonzero;stroke:none"
         id="path3464" />
      <path
         d="M 186.19864,403.15445 L 186.19864,379.88282 C 186.19864,372.47693 183.07844,369.68173 177.48804,369.68173 C 173.19774,369.68173 170.72754,370.71717 168.57777,374.55706 L 168.31774,374.55706 L 168.31774,356.22579 L 162.99201,356.22579 L 162.99201,403.15445 L 168.31774,403.15445 L 168.31774,383.84808 C 168.31774,378.32733 169.68286,374.03239 175.02252,374.03239 C 179.56355,374.03239 180.87291,376.89724 180.87291,380.92751 L 180.87291,403.15445 L 186.19864,403.15445"
         style="fill:#000000;fill-rule:nonzero;stroke:none"
         id="path3468" />
      <path
         d="M 211.36009,386.84294 C 211.88011,397.43868 207.84516,399.45383 204.59495,399.45383 C 201.02434,399.45383 199.4596,396.59362 199.4596,393.40377 C 199.4596,386.44826 206.28042,386.90795 211.36009,386.84294 z M 211.49006,403.15445 L 217.34049,403.15445 C 216.94581,400.62393 216.68582,397.95874 216.68582,395.35852 L 216.68582,379.56243 C 216.68582,374.03239 214.48029,369.68173 206.02968,369.68173 C 199.06491,369.68173 195.16927,372.21226 194.90928,379.56243 L 200.69002,379.56243 C 200.36966,376.11255 202.2548,373.712 205.83005,373.712 C 211.55043,373.712 211.49006,378.45734 211.36009,382.808 C 203.88455,382.61298 194.12923,383.06803 194.12923,393.01837 C 194.12923,399.32382 196.14434,403.80913 203.1045,403.80913 C 207.19513,403.80913 209.7303,402.17938 211.36009,398.40911 L 211.49006,398.40911 L 211.49006,403.15445"
         style="fill:#000000;fill-rule:evenodd;stroke:none"
         id="path3472" />
      <path
         d="M 222.99126,370.33177 L 222.99126,374.36207 L 228.06625,374.36207 L 228.06625,403.15445 L 233.39662,403.15445 L 233.39662,374.36207 L 242.00974,374.36207 L 242.00974,370.33177 L 233.39662,370.33177 L 233.39662,364.73672 C 233.39662,362.07618 234.36705,359.66638 240.02245,360.06103 L 240.02245,356.22579 C 239.24705,356.09113 238.59698,356.02612 237.49193,356.02612 C 232.74658,356.02612 228.06625,357.32619 228.06625,363.96132 L 228.06625,370.33177 L 222.99126,370.33177"
         style="fill:#000000;fill-rule:nonzero;stroke:none"
         id="path3476" />
      <path
         d="M 241.62899,370.33177 L 241.62899,374.36207 L 247.02901,374.36207 L 247.02901,397.69871 C 247.02901,401.46898 249.30419,403.5491 254.37453,403.5491 C 256.12966,403.5491 257.88942,403.15445 259.64454,403.02444 L 259.64454,398.93377 C 258.46984,399.06379 257.62475,399.1938 257.2301,399.1938 C 252.35938,399.1938 252.35938,396.51933 252.35938,394.44382 L 252.35938,374.36207 L 259.51917,374.36207 L 259.51917,370.33177 L 252.35938,370.33177 L 252.35938,361.62117 L 247.02901,364.02168 L 247.02901,370.33177 L 241.62899,370.33177"
         style="fill:#000000;fill-rule:nonzero;stroke:none"
         id="path3480" />
      <path
         d="M 279.44308,361.94152 L 285.42352,361.94152 L 285.42352,356.22579 L 279.44308,356.22579 L 279.44308,361.94152"
         style="fill:#000000;fill-rule:evenodd;stroke:none"
         id="path3484" />
      <path
         d="M 316.68143,380.85321 C 317.00646,373.51701 313.17118,369.68173 306.60571,369.68173 C 295.22992,369.68173 294.12948,377.60764 294.12948,387.22831 C 294.12948,401.72897 299.65952,403.80913 306.60571,403.80913 C 310.25061,403.80913 317.13648,401.46898 316.9461,392.23368 L 311.3557,392.23368 C 311.54608,398.14908 307.84081,399.45383 306.60571,399.45383 C 301.08032,399.45383 299.71524,395.61855 299.71524,384.95316 C 299.71524,375.98253 302.51508,374.03239 306.60571,374.03239 C 308.62086,374.03239 311.28605,375.47176 311.15603,380.85321 L 316.68143,380.85321"
         style="fill:#000000;fill-rule:nonzero;stroke:none"
         id="path3488" />
      <path
         d="M 347.9533,403.15445 L 347.9533,379.88282 C 347.9533,372.47693 344.8377,369.68173 339.24266,369.68173 C 334.95237,369.68173 332.4822,370.71717 330.33239,374.55706 L 330.07701,374.55706 L 330.07701,356.22579 L 324.74199,356.22579 L 324.74199,403.15445 L 330.07701,403.15445 L 330.07701,383.84808 C 330.07701,378.32733 331.43748,374.03239 336.77714,374.03239 C 341.32282,374.03239 342.62757,376.89724 342.62757,380.92751 L 342.62757,403.15445 L 347.9533,403.15445"
         style="fill:#000000;fill-rule:nonzero;stroke:none"
         id="path3492" />
      <path
         d="M 361.85961,384.43775 C 361.93391,375.33714 364.71982,373.712 368.10469,373.712 C 372.00498,373.712 374.67017,374.87745 374.67017,384.43775 L 361.85961,384.43775 z M 380.33022,388.46341 L 380.33022,385.67285 C 380.33022,374.81708 377.99003,369.68173 368.62939,369.68173 C 357.24428,369.68173 356.14388,377.60764 356.14388,387.22831 C 356.14388,401.72897 361.67391,403.80913 368.62939,403.80913 C 375.52451,403.80913 379.99589,400.49391 380.07019,393.2134 L 374.2198,393.2134 C 374.02477,396.51933 372.13964,399.45383 368.49938,399.45383 C 364.33446,399.45383 361.85961,397.6337 361.85961,388.46341 L 380.33022,388.46341"
         style="fill:#000000;fill-rule:evenodd;stroke:none"
         id="path3496" />
      <path
         d="M 427.96928,356.22579 L 399.9523,356.22579 L 399.9523,361.4215 L 421.92387,361.4215 L 421.92387,361.55152 L 399.16761,396.38932 L 399.16761,403.15445 L 428.49398,403.15445 L 428.49398,397.95874 L 404.69765,397.95874 L 427.96928,362.2062 L 427.96928,356.22579"
         style="fill:#000000;fill-rule:nonzero;stroke:none"
         id="path3500" />
      <path
         d="M 451.70525,392.10831 C 451.70525,397.5687 448.12536,399.70922 445.25586,399.70922 C 441.49488,399.70922 439.67475,397.04403 439.67475,393.08338 L 439.67475,370.33177 L 434.34438,370.33177 L 434.34438,395.35852 C 434.34438,400.94428 437.46926,403.80913 443.18499,403.80913 C 446.62562,403.80913 449.75046,402.17938 451.50559,399.1938 L 451.70525,399.1938 L 451.70525,403.15445 L 457.34673,403.15445 C 457.16099,400.87927 457.03562,398.60413 457.03562,396.33359 L 457.03562,370.33177 L 451.70525,370.33177 L 451.70525,392.10831"
         style="fill:#000000;fill-rule:nonzero;stroke:none"
         id="path3504" />
      <path
         d="M 487.45315,393.79378 C 487.45315,383.78771 471.08128,383.91309 471.08128,378.12766 C 471.08128,375.26749 473.28677,373.712 476.14233,373.712 C 479.52256,373.712 481.34269,375.52748 481.28233,378.97276 L 487.19312,378.97276 C 487.64813,372.47693 482.64744,369.68173 476.79701,369.68173 C 467.5571,369.68173 465.48623,375.20713 465.48623,378.64772 C 465.48623,388.46341 481.86275,388.59342 481.86275,394.44382 C 481.86275,397.82872 479.39255,399.45383 476.21198,399.45383 C 470.8166,399.45383 470.74695,395.02888 470.74695,393.14839 L 464.70154,393.14839 C 464.51116,400.68429 468.92682,403.80913 476.00767,403.80913 C 482.51278,403.80913 487.45315,401.00929 487.45315,393.79378"
         style="fill:#000000;fill-rule:nonzero;stroke:none"
         id="path3508" />
      <path
         d="M 511.94592,386.84294 C 512.46597,397.43868 508.44032,399.45383 505.1901,399.45383 C 501.60092,399.45383 500.05475,396.59362 500.05475,393.40377 C 500.05475,386.44826 506.87093,386.90795 511.94592,386.84294 z M 512.07129,403.15445 L 517.92172,403.15445 C 517.54096,400.62393 517.28097,397.95874 517.28097,395.35852 L 517.28097,379.56243 C 517.28097,374.03239 515.06151,369.68173 506.6109,369.68173 C 499.66006,369.68173 495.75978,372.21226 495.50443,379.56243 L 501.28981,379.56243 C 500.96482,376.11255 502.84531,373.712 506.4252,373.712 C 512.14094,373.712 512.07129,378.45734 511.94592,382.808 C 504.47042,382.61298 494.72438,383.06803 494.72438,393.01837 C 494.72438,399.32382 496.73949,403.80913 503.69501,403.80913 C 507.79028,403.80913 510.31616,402.17938 511.94592,398.40911 L 512.07129,398.40911 L 512.07129,403.15445"
         style="fill:#000000;fill-rule:evenodd;stroke:none"
         id="path3512" />
      <path
         d="M 549.13319,403.15445 L 549.13319,381.05752 C 549.13319,379.82246 549.39322,376.57221 550.94403,375.26749 C 552.38807,374.10204 552.96847,374.03239 554.98827,374.03239 C 559.26467,374.03239 560.18397,377.09226 560.18397,380.40284 L 560.18397,403.15445 L 565.50967,403.15445 L 565.50967,378.19267 C 565.50967,370.46178 559.99357,369.68173 556.53907,369.68173 C 553.54887,369.68173 550.55867,370.39213 548.74782,373.90238 C 547.51272,370.9168 544.06284,369.68173 541.07262,369.68173 C 537.23274,369.68173 534.44682,370.9168 532.87275,374.42708 L 532.74742,374.42708 L 532.74742,370.33177 L 527.1013,370.33177 C 527.28703,372.60695 527.41701,374.87745 527.41701,377.15727 L 527.41701,403.15445 L 532.74742,403.15445 L 532.74742,381.05752 C 532.74742,379.82246 533.00741,377.86767 533.98248,376.24256 C 534.76253,375.00746 536.97271,374.03239 538.59781,374.03239 C 542.89275,374.03239 543.80281,377.09226 543.80281,380.40284 L 543.80281,403.15445 L 549.13319,403.15445"
         style="fill:#000000;fill-rule:nonzero;stroke:none"
         id="path3516" />
      <path
         d="M 596.06187,403.15445 L 596.06187,381.05752 C 596.06187,379.82246 596.32187,376.57221 597.87277,375.26749 C 599.30747,374.10204 599.89247,374.03239 601.91227,374.03239 C 606.19797,374.03239 607.11267,377.09226 607.11267,380.40284 L 607.11267,403.15445 L 612.43377,403.15445 L 612.43377,378.19267 C 612.43377,370.46178 606.91767,369.68173 603.46307,369.68173 C 600.47757,369.68173 597.48267,370.39213 595.67187,373.90238 C 594.43677,370.9168 590.98227,369.68173 588.00127,369.68173 C 584.15677,369.68173 581.37087,370.9168 579.80607,374.42708 L 579.68077,374.42708 L 579.68077,370.33177 L 574.02527,370.33177 C 574.21107,372.60695 574.34567,374.87745 574.34567,377.15727 L 574.34567,403.15445 L 579.68077,403.15445 L 579.68077,381.05752 C 579.68077,379.82246 579.94077,377.86767 580.91577,376.24256 C 581.68657,375.00746 583.89677,374.03239 585.52187,374.03239 C 589.82607,374.03239 590.72687,377.09226 590.72687,380.40284 L 590.72687,403.15445 L 596.06187,403.15445"
         style="fill:#000000;fill-rule:nonzero;stroke:none"
         id="path3520" />
      <path
         d="M 626.73017,384.43775 C 626.80437,375.33714 629.59497,373.712 632.97057,373.712 C 636.87547,373.712 639.53607,374.87745 639.53607,384.43775 L 626.73017,384.43775 z M 645.20067,388.46341 L 645.20067,385.67285 C 645.20067,374.81708 642.85587,369.68173 633.49987,369.68173 C 622.11477,369.68173 621.01437,377.60764 621.01437,387.22831 C 621.01437,401.72897 626.54437,403.80913 633.49987,403.80913 C 640.39497,403.80913 644.87567,400.49391 644.93607,393.2134 L 639.08567,393.2134 C 638.89527,396.51933 637.01007,399.45383 633.36987,399.45383 C 629.20497,399.45383 626.73017,397.6337 626.73017,388.46341 L 645.20067,388.46341"
         style="fill:#000000;fill-rule:evenodd;stroke:none"
         id="path3524" />
      <path
         d="M 676.85797,403.15445 L 676.85797,380.40284 C 676.85797,373.90238 675.10277,369.68173 668.07767,369.68173 C 663.85237,369.68173 661.38687,370.84715 659.30207,374.55706 L 659.04207,374.55706 L 659.04207,370.33177 L 653.39127,370.33177 C 653.58627,372.60695 653.71167,374.87745 653.71167,377.15727 L 653.71167,403.15445 L 659.04207,403.15445 L 659.04207,383.71806 C 659.04207,379.23275 659.89637,374.03239 665.74677,374.03239 C 670.28787,374.03239 671.52757,376.89724 671.52757,380.40284 L 671.52757,403.15445 L 676.85797,403.15445"
         style="fill:#000000;fill-rule:nonzero;stroke:none"
         id="path3528" />
      <path
         d="M 702.33977,386.84294 C 702.86447,397.43868 698.82947,399.45383 695.56997,399.45383 C 692.00397,399.45383 690.44857,396.59362 690.44857,393.40377 C 690.44857,386.44826 697.27407,386.90795 702.33977,386.84294 z M 702.47437,403.15445 L 708.32477,403.15445 C 707.92087,400.62393 707.66547,397.95874 707.66547,395.35852 L 707.66547,379.56243 C 707.66547,374.03239 705.45997,369.68173 697.01397,369.68173 C 690.05387,369.68173 686.15357,372.21226 685.88427,379.56243 L 691.68367,379.56243 C 691.35397,376.11255 693.23447,373.712 696.80967,373.712 C 702.54407,373.712 702.47437,378.45734 702.33977,382.808 C 694.85957,382.61298 685.11347,383.06803 685.11347,393.01837 C 685.11347,399.32382 687.11937,403.80913 694.08417,403.80913 C 698.17947,403.80913 700.70997,402.17938 702.33977,398.40911 L 702.47437,398.40911 L 702.47437,403.15445"
         style="fill:#000000;fill-rule:evenodd;stroke:none"
         id="path3532" />
      <path
         d="M 723.60087,370.33177 L 718.26587,370.33177 L 718.26587,403.15445 L 723.60087,403.15445 L 723.60087,383.78771 C 723.60087,379.36276 725.08667,374.87745 731.01137,374.87745 C 731.98647,374.87745 732.89647,375.07711 733.87157,375.20713 L 733.87157,369.68173 C 728.67127,369.68173 725.94567,370.26212 723.72627,375.26749 L 723.60087,375.26749 L 723.60087,370.33177"
         style="fill:#000000;fill-rule:nonzero;stroke:none"
         id="path3536" />
      <path
         d="M 744.82027,385.40818 C 744.82027,381.05752 745.07557,374.03239 750.99567,374.03239 C 756.71607,374.03239 757.49607,378.58736 757.49607,387.35832 C 757.49607,392.29869 757.49607,399.45383 750.79607,399.45383 C 744.23057,399.45383 744.82027,390.41355 744.82027,385.40818 z M 744.82027,399.25417 L 744.94097,399.25417 C 746.77497,402.3094 749.03627,403.80913 752.49077,403.80913 C 757.75147,403.80913 763.08647,401.72897 763.08647,387.29796 C 763.08647,379.10273 762.82187,369.68173 752.23077,369.68173 C 749.10587,369.68173 746.82607,371.04681 745.01527,373.64699 L 744.82027,373.64699 L 744.82027,356.22579 L 739.48517,356.22579 L 739.48517,403.15445 L 744.82027,403.15445 L 744.82027,399.25417"
         style="fill:#000000;fill-rule:evenodd;stroke:none"
         id="path3540" />
      <path
         d="M 776.74217,384.43775 C 776.80247,375.33714 779.60237,373.712 782.97797,373.712 C 786.88287,373.712 789.53877,374.87745 789.53877,384.43775 L 776.74217,384.43775 z M 795.19877,388.46341 L 795.19877,385.67285 C 795.19877,374.81708 792.85397,369.68173 783.50257,369.68173 C 772.12677,369.68173 771.01707,377.60764 771.01707,387.22831 C 771.01707,401.72897 776.54707,403.80913 783.50257,403.80913 C 790.37917,403.80913 794.87377,400.49391 794.93417,393.2134 L 789.09297,393.2134 C 788.89337,396.51933 787.00357,399.45383 783.36797,399.45383 C 779.20767,399.45383 776.74217,397.6337 776.74217,388.46341 L 795.19877,388.46341"
         style="fill:#000000;fill-rule:evenodd;stroke:none"
         id="path3544" />
      <path
         d="M 7.1295714,311.53977 L 13.504671,311.53977 C 19.615091,311.53977 24.230421,312.83523 24.230421,320.31073 C 24.230421,323.756 21.950631,328.31093 15.589471,328.31093 L 7.1295714,328.31093 L 7.1295714,311.53977 z M 7.1295714,291.77373 L 15.589471,291.77373 C 20.585521,291.77373 22.804981,294.95894 22.804981,298.85923 C 22.804981,303.40955 20.520511,306.2744 15.835571,306.33476 L 7.1295714,306.33476 L 7.1295714,291.77373 z M 16.230221,333.50668 C 21.565231,333.50668 30.336241,332.34123 30.336241,320.31073 C 30.336241,313.87992 27.415661,309.84501 20.720181,309.06496 L 20.720181,308.74457 C 26.765631,307.37949 28.785391,303.47456 28.785391,297.62877 C 28.785391,296.71871 28.520751,293.92351 26.895611,291.39298 C 25.145131,288.78351 22.934991,286.57802 16.429881,286.57802 L 1.1491714,286.57802 L 1.1491714,333.50668 L 16.230221,333.50668"
         style="fill:#000000;fill-rule:evenodd;stroke:none"
         id="path3548" />
      <path
         d="M 55.474431,322.46054 C 55.474431,327.92092 51.889891,330.06145 49.029691,330.06145 C 45.264061,330.06145 43.439281,327.39622 43.439281,323.43561 L 43.439281,300.684 L 38.113561,300.684 L 38.113561,325.71075 C 38.113561,331.29651 41.233791,334.16136 46.949531,334.16136 C 50.394761,334.16136 53.519641,332.53161 55.270121,329.54603 L 55.474431,329.54603 L 55.474431,333.50668 L 61.120551,333.50668 C 60.930171,331.2315 60.800161,328.95636 60.800161,326.68582 L 60.800161,300.684 L 55.474431,300.684 L 55.474431,322.46054"
         style="fill:#000000;fill-rule:nonzero;stroke:none"
         id="path3552" />
      <path
         d="M 93.567121,333.50668 L 93.567121,310.75507 C 93.567121,304.25461 91.807361,300.03396 84.786831,300.03396 C 80.561551,300.03396 78.091381,301.19938 76.015871,304.90929 L 75.751201,304.90929 L 75.751201,300.684 L 70.100471,300.684 C 70.295451,302.95914 70.425471,305.22968 70.425471,307.50946 L 70.425471,333.50668 L 75.751201,333.50668 L 75.751201,314.07029 C 75.751201,309.58498 76.596251,304.38462 82.451331,304.38462 C 86.997011,304.38462 88.232111,307.24947 88.232111,310.75507 L 88.232111,333.50668 L 93.567121,333.50668"
         style="fill:#000000;fill-rule:nonzero;stroke:none"
         id="path3556" />
      <path
         d="M 119.75933,315.76041 C 119.75933,322.39089 119.75933,329.80606 113.77888,329.80606 C 107.08807,329.80606 107.08807,322.65092 107.08807,317.71055 C 107.08807,308.93959 107.86348,304.38462 113.5839,304.38462 C 119.4993,304.38462 119.75933,311.40975 119.75933,315.76041 z M 119.75933,303.99922 L 119.56895,303.99922 C 117.74882,301.39904 115.46903,300.03396 112.35344,300.03396 C 101.75306,300.03396 101.49303,309.45496 101.49303,317.65019 C 101.49303,332.0812 106.8234,334.16136 112.09341,334.16136 C 115.534,334.16136 117.81383,332.66162 119.62931,329.60639 L 119.75933,329.60639 L 119.75933,333.50668 L 125.09434,333.50668 L 125.09434,286.57802 L 119.75933,286.57802 L 119.75933,303.99922"
         style="fill:#000000;fill-rule:evenodd;stroke:none"
         id="path3560" />
      <path
         d="M 139.53,314.78998 C 139.59037,305.68934 142.39021,304.06423 145.77044,304.06423 C 149.66608,304.06423 152.33127,305.22968 152.33127,314.78998 L 139.53,314.78998 z M 157.98203,318.81564 L 157.98203,316.02508 C 157.98203,305.16931 155.64649,300.03396 146.28582,300.03396 C 134.91467,300.03396 133.80959,307.95987 133.80959,317.58053 C 133.80959,332.0812 139.33498,334.16136 146.28582,334.16136 C 153.17633,334.16136 157.66164,330.84614 157.722,323.56562 L 151.87622,323.56562 C 151.68588,326.87156 149.7961,329.80606 146.15584,329.80606 C 141.99552,329.80606 139.53,327.98593 139.53,318.81564 L 157.98203,318.81564"
         style="fill:#000000;fill-rule:evenodd;stroke:none"
         id="path3564" />
      <path
         d="M 187.37337,324.14601 C 187.37337,314.13994 170.98757,314.26532 170.98757,308.47989 C 170.98757,305.61972 173.19774,304.06423 176.06259,304.06423 C 179.43818,304.06423 181.2676,305.87971 181.19795,309.32495 L 187.11799,309.32495 C 187.5684,302.82916 182.56302,300.03396 176.71263,300.03396 C 167.48197,300.03396 165.40181,305.55936 165.40181,308.99995 C 165.40181,318.81564 181.77833,318.94565 181.77833,324.79604 C 181.77833,328.18095 179.30817,329.80606 176.1276,329.80606 C 170.73219,329.80606 170.66722,325.38111 170.66722,323.50062 L 164.61712,323.50062 C 164.42674,331.03648 168.84709,334.16136 175.92794,334.16136 C 182.43305,334.16136 187.37337,331.36152 187.37337,324.14601"
         style="fill:#000000;fill-rule:nonzero;stroke:none"
         id="path3568" />
      <path
         d="M 217.1269,333.50668 L 217.1269,311.40975 C 217.1269,310.17469 217.38693,306.92444 218.95631,305.61972 C 220.37715,304.45427 220.96218,304.38462 222.98197,304.38462 C 227.27691,304.38462 228.17769,307.44449 228.17769,310.75507 L 228.17769,333.50668 L 233.51735,333.50668 L 233.51735,308.5449 C 233.51735,300.81401 227.98731,300.03396 224.54207,300.03396 C 221.55185,300.03396 218.56166,300.74436 216.73689,304.25461 C 215.50643,301.26903 212.05656,300.03396 209.06633,300.03396 C 205.2357,300.03396 202.4405,301.26903 200.8804,304.77927 L 200.75038,304.77927 L 200.75038,300.684 L 195.09501,300.684 C 195.29,302.95914 195.42001,305.22968 195.42001,307.50946 L 195.42001,333.50668 L 200.75038,333.50668 L 200.75038,311.40975 C 200.75038,310.17469 201.01041,308.2199 201.98548,306.59476 C 202.76553,305.35969 204.97571,304.38462 206.59617,304.38462 C 210.88646,304.38462 211.79653,307.44449 211.79653,310.75507 L 211.79653,333.50668 L 217.1269,333.50668"
         style="fill:#000000;fill-rule:nonzero;stroke:none"
         id="path3572" />
      <path
         d="M 242.59942,292.29375 L 248.57982,292.29375 L 248.57982,286.57802 L 242.59942,286.57802 L 242.59942,292.29375"
         style="fill:#000000;fill-rule:evenodd;stroke:none"
         id="path3576" />
      <path
         d="M 280.75712,333.50668 L 280.75712,310.75507 C 280.75712,304.25461 278.99735,300.03396 271.98151,300.03396 C 267.7469,300.03396 265.28138,301.19938 263.20586,304.90929 L 262.94123,304.90929 L 262.94123,300.684 L 257.29046,300.684 C 257.48548,302.95914 257.61546,305.22968 257.61546,307.50946 L 257.61546,333.50668 L 262.94123,333.50668 L 262.94123,314.07029 C 262.94123,309.58498 263.78628,304.38462 269.64132,304.38462 C 274.19164,304.38462 275.42674,307.24947 275.42674,310.75507 L 275.42674,333.50668 L 280.75712,333.50668"
         style="fill:#000000;fill-rule:nonzero;stroke:none"
         id="path3580" />
      <path
         d="M 289.91812,292.29375 L 295.90318,292.29375 L 295.90318,286.57802 L 289.91812,286.57802 L 289.91812,292.29375"
         style="fill:#000000;fill-rule:evenodd;stroke:none"
         id="path3584" />
      <path
         d="M 325.85636,324.14601 C 325.85636,314.13994 309.47985,314.26532 309.47985,308.47989 C 309.47985,305.61972 311.69002,304.06423 314.55023,304.06423 C 317.93046,304.06423 319.75523,305.87971 319.69022,309.32495 L 325.60098,309.32495 C 326.06067,302.82916 321.05066,300.03396 315.20491,300.03396 C 305.97425,300.03396 303.89409,305.55936 303.89409,308.99995 C 303.89409,318.81564 320.27061,318.94565 320.27061,324.79604 C 320.27061,328.18095 317.80044,329.80606 314.61988,329.80606 C 309.22446,329.80606 309.15949,325.38111 309.15949,323.50062 L 303.11404,323.50062 C 302.92366,331.03648 307.33936,334.16136 314.42021,334.16136 C 320.92532,334.16136 325.85636,331.36152 325.85636,324.14601"
         style="fill:#000000;fill-rule:nonzero;stroke:none"
         id="path3588" />
      <path
         d="M 329.93774,300.684 L 329.93774,304.7143 L 335.34241,304.7143 L 335.34241,328.05094 C 335.34241,331.82121 337.61291,333.90133 342.68325,333.90133 C 344.43841,333.90133 346.19353,333.50668 347.9533,333.37667 L 347.9533,329.286 C 346.77392,329.41602 345.9335,329.54603 345.53882,329.54603 C 340.66349,329.54603 340.66349,326.87156 340.66349,324.79604 L 340.66349,304.7143 L 347.81864,304.7143 L 347.81864,300.684 L 340.66349,300.684 L 340.66349,291.9734 L 335.34241,294.37391 L 335.34241,300.684 L 329.93774,300.684"
         style="fill:#000000;fill-rule:nonzero;stroke:none"
         id="path3592" />
      <path
         d="M 358.0058,314.78998 C 358.07077,305.68934 360.87061,304.06423 364.24623,304.06423 C 368.14648,304.06423 370.81631,305.22968 370.81631,314.78998 L 358.0058,314.78998 z M 376.47636,318.81564 L 376.47636,316.02508 C 376.47636,305.16931 374.13157,300.03396 364.76161,300.03396 C 353.39047,300.03396 352.29002,307.95987 352.29002,317.58053 C 352.29002,332.0812 357.81077,334.16136 364.76161,334.16136 C 371.65673,334.16136 376.13743,330.84614 376.21169,323.56562 L 370.3613,323.56562 C 370.16163,326.87156 368.28114,329.80606 364.64088,329.80606 C 360.4806,329.80606 358.0058,327.98593 358.0058,318.81564 L 376.47636,318.81564"
         style="fill:#000000;fill-rule:evenodd;stroke:none"
         id="path3596" />
      <path
         d="M 389.66767,300.684 L 384.33262,300.684 L 384.33262,333.50668 L 389.66767,333.50668 L 389.66767,314.13994 C 389.66767,309.71499 391.16277,305.22968 397.08281,305.22968 C 398.05324,305.22968 398.9633,305.42934 399.93837,305.55936 L 399.93837,300.03396 C 394.73802,300.03396 392.01247,300.61435 389.79301,305.61972 L 389.66767,305.61972 L 389.66767,300.684"
         style="fill:#000000;fill-rule:nonzero;stroke:none"
         id="path3600" />
      <path
         d="M 405.29661,292.29375 L 411.27705,292.29375 L 411.27705,286.57802 L 405.29661,286.57802 L 405.29661,292.29375"
         style="fill:#000000;fill-rule:evenodd;stroke:none"
         id="path3604" />
      <path
         d="M 437.72925,322.46054 C 437.72925,327.92092 434.14935,330.06145 431.29383,330.06145 C 427.5282,330.06145 425.69414,327.39622 425.69414,323.43561 L 425.69414,300.684 L 420.36377,300.684 L 420.36377,325.71075 C 420.36377,331.29651 423.48861,334.16136 429.20903,334.16136 C 432.66355,334.16136 435.7745,332.53161 437.52962,329.54603 L 437.72925,329.54603 L 437.72925,333.50668 L 443.38001,333.50668 C 443.18963,331.2315 443.0643,328.95636 443.0643,326.68582 L 443.0643,300.684 L 437.72925,300.684 L 437.72925,322.46054"
         style="fill:#000000;fill-rule:nonzero;stroke:none"
         id="path3608" />
      <path
         d="M 474.45686,333.50668 L 474.45686,311.40975 C 474.45686,310.17469 474.72153,306.92444 476.2677,305.61972 C 477.70708,304.45427 478.29214,304.38462 480.30725,304.38462 C 484.59294,304.38462 485.50765,307.44449 485.50765,310.75507 L 485.50765,333.50668 L 490.82874,333.50668 L 490.82874,308.5449 C 490.82874,300.81401 485.31727,300.03396 481.86275,300.03396 C 478.86788,300.03396 475.88695,300.74436 474.06217,304.25461 C 472.83175,301.26903 469.39116,300.03396 466.3963,300.03396 C 462.55173,300.03396 459.76117,301.26903 458.20107,304.77927 L 458.07106,304.77927 L 458.07106,300.684 L 452.42029,300.684 C 452.61067,302.95914 452.74533,305.22968 452.74533,307.50946 L 452.74533,333.50668 L 458.07106,333.50668 L 458.07106,311.40975 C 458.07106,310.17469 458.32644,308.2199 459.30152,306.59476 C 460.08621,305.35969 462.29634,304.38462 463.91685,304.38462 C 468.21643,304.38462 469.13113,307.44449 469.13113,310.75507 L 469.13113,333.50668 L 474.45686,333.50668"
         style="fill:#000000;fill-rule:nonzero;stroke:none"
         id="path3612" />
      <path
         d="M 507.65562,300.684 L 507.65562,304.7143 L 512.72136,304.7143 L 512.72136,333.50668 L 518.05173,333.50668 L 518.05173,304.7143 L 524.68682,304.7143 L 524.68682,300.684 L 518.05173,300.684 L 518.05173,295.08896 C 518.05173,292.42841 519.03145,290.01861 524.68682,290.41326 L 524.68682,286.57802 C 523.90677,286.44336 523.26138,286.37835 522.147,286.37835 C 517.41095,286.37835 512.72136,287.67843 512.72136,294.31355 L 512.72136,300.684 L 507.65562,300.684"
         style="fill:#000000;fill-rule:nonzero;stroke:none"
         id="path3616" />
      <path
         d="M 538.86713,288.40279 L 532.36666,288.40279 L 532.36666,295.13539 L 538.86713,295.13539 L 538.86713,288.40279 z "
         style="fill:#000000;fill-rule:evenodd;stroke:none"
         id="path3618" />
      <path
         d="M 550.01075,288.40279 L 543.97462,288.40279 L 543.97462,295.13539 L 550.01075,295.13539 L 550.01075,288.40279 z "
         style="fill:#000000;fill-rule:evenodd;stroke:none"
         id="path3620" />
      <path
         d="M 547.36413,322.46054 C 547.36413,327.92092 543.7796,330.06145 540.91939,330.06145 C 537.1538,330.06145 535.32903,327.39622 535.32903,323.43561 L 535.32903,300.684 L 530.0033,300.684 L 530.0033,325.71075 C 530.0033,331.29651 533.11885,334.16136 538.83927,334.16136 C 542.2845,334.16136 545.40474,332.53161 547.15986,329.54603 L 547.36413,329.54603 L 547.36413,333.50668 L 553.01487,333.50668 C 552.82457,331.2315 552.68987,328.95636 552.68987,326.68582 L 552.68987,300.684 L 547.36413,300.684 L 547.36413,322.46054"
         style="fill:#000000;fill-rule:evenodd;stroke:none"
         id="path3624" />
      <path
         d="M 567.83597,300.684 L 562.50557,300.684 L 562.50557,333.50668 L 567.83597,333.50668 L 567.83597,314.13994 C 567.83597,309.71499 569.33107,305.22968 575.25117,305.22968 C 576.22617,305.22968 577.13627,305.42934 578.11127,305.55936 L 578.11127,300.03396 C 572.91097,300.03396 570.18077,300.61435 567.96597,305.61972 L 567.83597,305.61972 L 567.83597,300.684"
         style="fill:#000000;fill-rule:nonzero;stroke:none"
         id="path3628" />
      <path
         d="M 815.60557,370.33177 L 815.60557,374.36207 L 820.99637,374.36207 L 820.99637,397.69871 C 820.99637,401.46898 823.27147,403.5491 828.33717,403.5491 C 830.09697,403.5491 831.85677,403.15445 833.61187,403.02444 L 833.61187,398.93377 C 832.43707,399.06379 831.59207,399.1938 831.20667,399.1938 C 826.33597,399.1938 826.33597,396.51933 826.33597,394.44382 L 826.33597,374.36207 L 833.47257,374.36207 L 833.47257,370.33177 L 826.33597,370.33177 L 826.33597,361.62117 L 820.99637,364.02168 L 820.99637,370.33177 L 815.60557,370.33177"
         style="fill:#000000;fill-rule:nonzero;stroke:none"
         id="path3632" />
      <path
         d="M -60.568059,635.29511 L -40.138059,635.29511 L -40.138059,519.21551 L -60.568059,519.21551 L -60.568059,635.29511 z "
         style="fill:#f7d100;fill-opacity:1;fill-rule:nonzero;stroke:none"
         id="path3634" />
      <path
         d="M -60.568059,519.21551 L -40.138059,519.21551 L -40.138059,402.71798 L -60.568059,402.71798 L -60.568059,519.21551 z "
         style="fill:#e3001b;fill-opacity:1;fill-rule:nonzero;stroke:none"
         id="path3636" />
      <path
         d="M -60.568059,403.13588 L -40.138059,403.13588 L -40.138059,287.05625 L -60.568059,287.05625 L -60.568059,403.13588 z "
         style="fill:#000000;fill-rule:nonzero;stroke:none"
         id="path3638" />
      <path
         d="M -177.96633,403.18231 L -177.96633,403.18231 z M -177.96169,403.22875 L -177.96169,403.22875 z M -177.97098,403.24268 L -177.97098,403.24268 z M -177.97098,403.1591 L -177.97098,403.1591 z M -124.68579,306.71084 C -124.68579,300.09897 -129.49614,294.86607 -131.1909,293.38955 L -132.40743,293.66351 C -130.60587,295.86436 -127.43456,299.54177 -127.43456,304.41713 C -127.43456,314.00529 -137.57064,322.34445 -149.14145,322.49768 C -149.05322,323.48204 -149.05786,324.35496 -149.05786,325.09786 C -149.05786,326.47226 -149.14609,327.81413 -149.30861,329.11423 C -136.1823,328.87742 -124.68579,318.20275 -124.68579,306.71084 z M -142.78957,386.12326 C -148.3939,386.12326 -149.60578,385.53819 -151.08695,385.53819 C -152.03416,385.53819 -152.93958,385.62642 -152.93958,386.96832 C -152.93958,387.9016 -151.89021,389.26203 -150.943,389.98172 C -149.62436,388.66772 -147.81351,388.38911 -144.89294,388.38911 C -143.52783,388.38911 -141.66591,388.65379 -140.83942,388.76058 C -140.95551,389.57314 -141.11803,390.61322 -141.11803,392.08045 C -141.11803,392.85586 -141.09017,393.75199 -141.09017,394.70384 C -141.09017,398.01442 -141.57768,399.76958 -142.7292,401.09287 C -142.47846,401.2461 -141.81914,401.38076 -141.41985,401.38076 C -139.27468,401.38076 -138.7268,400.2896 -138.7268,394.71777 C -138.7268,393.0323 -138.5875,391.47685 -138.5875,391.07287 C -135.58799,393.36198 -132.53276,397.44332 -132.53276,400.3964 C -131.55308,399.89492 -130.40156,398.41375 -130.40156,397.29938 C -130.40156,395.29352 -133.76322,392.29869 -137.32918,388.68629 C -136.83238,388.56556 -135.50905,388.18481 -134.42254,388.18481 C -131.61805,388.18481 -129.35684,388.65379 -128.03816,390.2046 C -127.51814,389.63814 -127.0863,387.9341 -127.0863,386.96832 C -127.0863,385.29213 -128.04745,385.34781 -128.74395,385.34781 C -131.72949,385.34781 -135.41154,385.81215 -138.04887,386.24859 C -139.01001,384.97174 -145.12047,376.70222 -146.70378,372.29584 C -147.1588,372.13332 -147.51169,372.00331 -148.26388,372.00331 C -149.73112,372.00331 -150.11652,373.02946 -150.49263,374.43636 C -147.12629,378.52235 -143.89001,382.96587 -142.78957,386.12326 z M -176.24371,374.43636 C -176.62447,373.02946 -176.9959,372.00331 -178.46782,372.00331 C -179.22465,372.00331 -179.57751,372.13332 -180.02327,372.29584 C -181.62052,376.70222 -187.7263,384.97174 -188.68744,386.24859 C -191.31552,385.81215 -195.01146,385.34781 -197.98775,385.34781 C -198.68886,385.34781 -199.65,385.29213 -199.65,386.96832 C -199.65,387.9341 -199.22285,389.63814 -198.69351,390.2046 C -197.38415,388.65379 -195.11361,388.18481 -192.31377,388.18481 C -191.22265,388.18481 -189.90861,388.56556 -189.41181,388.68629 C -192.97777,392.29869 -196.33478,395.29352 -196.33478,397.29938 C -196.33478,398.41375 -195.17862,399.89492 -194.1989,400.3964 C -194.1989,397.44332 -191.14371,393.36198 -188.14885,391.07287 C -188.14885,391.47685 -188.00954,393.0323 -188.00954,394.71777 C -188.00954,400.2896 -187.45702,401.38076 -185.31185,401.38076 C -184.92185,401.38076 -184.25785,401.2461 -184.0025,401.09287 C -185.15862,399.76958 -185.64618,398.01442 -185.64618,394.70384 C -185.64618,393.75199 -185.60903,392.85586 -185.60903,392.08045 C -185.60903,390.61322 -185.78084,389.57314 -185.89228,388.76058 C -185.07504,388.65379 -183.20848,388.38911 -181.8434,388.38911 C -178.92283,388.38911 -177.11199,388.66772 -175.7887,389.98172 C -174.84149,389.26203 -173.79677,387.9016 -173.79677,386.96832 C -173.79677,385.62642 -174.69754,385.53819 -175.6494,385.53819 C -177.13056,385.53819 -178.3378,386.12326 -183.94678,386.12326 C -182.84169,382.96587 -179.61001,378.52235 -176.24371,374.43636 z M -199.29714,304.41713 C -199.29714,299.54177 -196.12583,295.86436 -194.32892,293.66351 L -195.53616,293.38955 C -197.2402,294.86607 -202.04591,300.09897 -202.04591,306.71084 C -202.04591,318.28633 -190.39152,329.0353 -177.13985,329.11888 C -177.27915,327.86056 -177.36273,326.53259 -177.36273,325.09786 C -177.36273,324.20637 -177.32558,323.33345 -177.25129,322.51161 C -188.9614,322.51161 -199.29714,314.09815 -199.29714,304.41713 z M -163.69319,295.49757 C -163.08959,294.11388 -162.28168,292.46556 -162.28168,290.64543 C -162.28168,285.62616 -166.44196,283.2349 -172.01378,283.2349 C -174.87864,283.2349 -176.32265,284.1589 -176.32265,285.08753 C -176.32265,286.01617 -175.37544,288.05454 -175.01329,288.686 C -173.98714,288.23099 -172.12523,287.68771 -171.048,287.68771 C -167.22201,287.68771 -164.3618,291.9734 -163.69319,295.49757 z M -160.95835,289.08069 C -157.69885,289.71679 -155.47939,285.55651 -158.57641,284.80897 C -158.14458,286.18333 -160.22938,287.15376 -160.22938,287.15376 C -160.22938,287.15376 -161.02336,285.31506 -159.99257,284.26569 C -161.89163,283.33705 -162.36987,284.46536 -162.40701,285.63545 C -161.65947,286.6291 -161.17659,287.78987 -160.95835,289.08069 z M -150.41369,317.59447 C -149.88899,317.62697 -149.39683,317.65947 -148.87213,317.65947 C -139.70652,317.65947 -130.60587,311.7255 -130.60587,304.12459 C -130.60587,300.07575 -132.43064,297.24341 -134.68257,294.09995 C -136.00589,294.31819 -137.20845,294.44356 -138.15566,294.44356 C -142.31134,294.44356 -144.56326,292.21946 -144.72578,290.03254 C -144.72578,288.06383 -143.12853,286.57338 -140.6398,286.57338 C -136.78594,286.57338 -129.75153,290.18113 -122.666,290.18113 C -123.36715,290.71044 -124.52327,291.26761 -125.92089,291.78766 C -121.76986,295.52543 -118.99323,300.53541 -117.93462,305.89829 L -107.07885,323.27309 C -105.25408,326.17509 -101.40023,331.87693 -95.591589,336.32974 C -102.61211,336.32974 -107.27384,336.49687 -113.21249,327.10373 L -118.77503,318.20275 C -119.18361,319.34959 -119.69903,320.47325 -120.2887,321.57369 L -109.22398,339.28742 C -107.38064,342.22193 -103.56857,347.88198 -97.732109,352.35336 C -104.75724,352.35336 -109.40972,352.52517 -115.34833,343.12735 L -124.87617,327.87449 C -125.59121,328.63132 -126.33876,329.36958 -127.13738,330.08466 L -113.69072,351.60117 C -111.83809,354.54957 -108.03999,360.17712 -102.19885,364.66243 C -109.22398,364.66243 -113.8811,364.82495 -119.81976,355.42717 L -132.9228,334.45389 C -133.79108,335.00642 -134.67328,335.52648 -135.5787,336.03257 L -119.59223,361.62581 C -117.74424,364.56492 -113.95075,370.20175 -108.10032,374.68707 C -115.12084,374.68707 -119.78725,374.84959 -125.71658,365.45177 L -142.18597,339.09244 C -143.16104,339.46852 -144.15468,339.82606 -145.15762,340.14641 L -126.54307,369.94173 C -124.73222,372.82979 -120.84122,378.55485 -115.06048,382.99373 C -122.08097,382.99373 -126.74273,383.1609 -132.6767,373.76308 L -152.51239,342.00833 L -153.12067,342.11977 C -153.65462,343.8331 -154.03073,345.43967 -154.03073,347.04156 C -154.03073,357.01513 -147.48383,365.82324 -139.62293,372.62088 C -140.12903,372.83908 -141.00659,372.92266 -141.81914,372.92266 C -143.43032,372.92266 -144.48433,372.82979 -145.22259,372.70442 C -143.39781,376.84617 -139.48828,382.18582 -137.51027,384.95316 C -134.93795,384.49347 -131.19554,384.12668 -128.74395,384.12668 C -126.18553,384.12668 -125.90232,385.62642 -125.90232,386.96832 C -125.90232,389.29453 -126.98883,391.1611 -128.25175,392.19653 C -128.72538,390.99394 -129.68188,389.40598 -134.42254,389.40598 L -134.90081,389.42455 C -133.50783,390.97072 -129.17575,394.47632 -129.17575,397.29938 C -129.17575,399.16594 -131.22805,401.97043 -133.93502,401.97043 C -133.76322,401.36683 -133.79108,400.80962 -133.79108,400.3964 C -133.79108,398.11193 -135.81552,395.43746 -137.5242,393.5709 C -137.48241,394.1281 -137.50099,394.06774 -137.50099,394.71777 C -137.50099,400.1178 -137.98386,402.60189 -141.41985,402.60189 C -143.10067,402.60189 -144.26612,401.6779 -144.66077,401.40862 C -142.43671,399.34703 -142.31598,397.73586 -142.31598,394.70384 L -142.3392,392.08045 C -142.34384,391.38862 -142.33455,390.47391 -142.22311,389.80995 C -143.45353,389.63814 -143.94109,389.64279 -144.89294,389.64279 C -144.89294,389.64279 -149.77291,389.25739 -150.943,391.79256 C -152.26168,390.58536 -154.17932,388.87202 -154.17932,386.96832 C -154.17932,385.71928 -153.59426,384.31242 -151.08695,384.31242 C -150.13509,384.31242 -147.14022,384.89744 -144.63756,384.89744 C -145.30617,383.40235 -148.30568,379.02844 -150.89192,375.84323 C -151.28661,377.07369 -151.90414,378.4202 -153.26461,379.50206 C -153.45031,377.45441 -154.64362,371.00038 -157.83815,367.23011 C -158.20959,369.77924 -158.71571,372.398 -158.71571,377.9141 C -158.71571,391.34219 -155.48404,401.26003 -148.63071,403.15445 C -149.51756,404.7192 -151.4027,406.10753 -153.36209,406.10753 C -155.86944,406.10753 -157.23451,403.27054 -158.63213,400.59142 C -159.35182,402.57403 -161.35304,407.40296 -163.36815,407.40296 C -165.37402,407.40296 -167.37988,402.57403 -168.10421,400.59142 C -169.49719,403.27054 -170.86226,406.10753 -173.37422,406.10753 C -175.32901,406.10753 -177.21414,404.7192 -178.10099,403.15445 C -171.25231,401.26003 -168.02063,391.34219 -168.02063,377.9141 C -168.02063,372.398 -168.52211,369.77924 -168.89819,367.23011 C -172.08808,371.00038 -173.286,377.45441 -173.47173,379.50206 C -174.8322,378.4202 -175.44973,377.07369 -175.83978,375.84323 C -178.43067,379.02844 -181.42085,383.40235 -182.09879,384.89744 C -179.5868,384.89744 -176.60125,384.31242 -175.6494,384.31242 C -173.14209,384.31242 -172.54774,385.71928 -172.54774,386.96832 C -172.54774,388.87202 -174.47466,390.58536 -175.7887,391.79256 C -176.96804,389.25739 -181.8434,389.64279 -181.8434,389.64279 C -182.78597,389.64279 -183.27813,389.63814 -184.50859,389.80995 C -184.40643,390.47391 -184.38322,391.38862 -184.40179,392.08045 L -184.41572,394.70384 C -184.41572,397.73586 -184.29964,399.34703 -182.07093,401.40862 C -182.46558,401.6779 -183.63103,402.60189 -185.31185,402.60189 C -188.7478,402.60189 -189.24,400.1178 -189.24,394.71777 C -189.24,394.06774 -189.25858,394.1281 -189.2075,393.5709 C -190.92547,395.43746 -192.94062,398.11193 -192.94062,400.3964 C -192.94062,400.80962 -192.96848,401.36683 -192.80597,401.97043 C -195.50366,401.97043 -197.55595,399.16594 -197.55595,397.29938 C -197.55595,394.47632 -193.21919,390.97072 -191.83554,389.42455 L -192.31377,389.40598 C -197.04982,389.40598 -198.01561,390.99394 -198.48459,392.19653 C -199.74751,391.1611 -200.83867,389.29453 -200.83867,386.96832 C -200.83867,385.62642 -200.54614,384.12668 -197.98775,384.12668 C -195.53152,384.12668 -191.79375,384.49347 -189.22143,384.95316 C -187.25271,382.18582 -183.34314,376.84617 -181.51372,372.70442 C -182.24738,372.82979 -183.2967,372.92266 -184.9172,372.92266 C -185.72512,372.92266 -186.60732,372.83908 -187.10412,372.62088 C -179.25251,365.82324 -172.70561,357.01513 -172.70561,347.04156 C -172.70561,345.43967 -173.07708,343.8331 -173.62032,342.11977 L -174.21928,342.00833 L -194.0596,373.76308 C -199.99361,383.1609 -204.65073,382.99373 -211.67122,382.99373 C -205.89044,378.55485 -202.00876,372.82979 -200.19328,369.94173 L -181.57409,340.14641 C -182.58166,339.82606 -183.56602,339.46852 -184.54573,339.09244 L -201.01512,365.45177 C -206.95374,374.84959 -211.6155,374.68707 -218.63134,374.68707 C -212.78559,370.20175 -208.9921,364.56492 -207.14876,361.62581 L -191.153,336.03257 C -192.06771,335.52648 -192.94991,335.00642 -193.81354,334.45389 L -206.91659,355.42717 C -212.85524,364.82495 -217.50772,364.66243 -224.53285,364.66243 C -218.69171,360.17712 -214.88893,354.54957 -213.04562,351.60117 L -199.60357,330.08466 C -200.39291,329.36958 -201.14513,328.63132 -201.85553,327.87449 L -211.38333,343.12735 C -217.32663,352.52517 -221.98375,352.35336 -228.99959,352.35336 C -223.16773,347.88198 -219.35571,342.22193 -217.50772,339.28742 L -206.44765,321.57369 C -207.03732,320.47325 -207.54344,319.34959 -207.96131,318.20275 L -213.52385,327.10373 C -219.46247,336.49687 -224.11959,336.32974 -231.13547,336.32974 C -225.32683,331.87693 -221.48226,326.17509 -219.65285,323.27309 L -208.79708,305.89829 C -207.74307,300.53541 -204.96645,295.52543 -200.81545,291.78766 C -202.20375,291.26761 -203.3692,290.71044 -204.07031,290.18113 C -196.98017,290.18113 -189.95504,286.57802 -186.09655,286.57802 C -183.60317,286.57802 -182.01056,288.06383 -182.01056,290.03254 C -182.16844,292.21946 -184.42501,294.44356 -188.58532,294.44356 C -189.52321,294.44356 -190.72581,294.31819 -192.05378,294.09995 C -194.30106,297.24341 -196.12583,300.07575 -196.12583,304.12459 C -196.12583,311.7255 -187.03447,317.65947 -177.85489,317.65947 C -177.33951,317.65947 -176.84271,317.62697 -176.32265,317.59447 C -174.50717,311.43761 -170.63938,307.39806 -167.54704,303.4467 C -171.25231,302.10016 -175.38473,298.58063 -175.38473,296.98338 C -174.91578,296.70942 -167.81632,298.94281 -167.07806,299.14712 C -166.92947,299.18426 -166.77628,299.19355 -166.60447,299.14712 C -165.74084,298.88709 -165.01651,297.61948 -165.01651,297.48951 C -165.77799,297.36413 -170.2308,296.78836 -173.27671,295.67866 C -175.58903,294.83357 -176.75913,293.30133 -176.75913,292.72095 C -176.02083,292.60022 -173.19781,294.07674 -169.06535,294.07674 C -167.53776,294.07674 -167.23594,294.01173 -165.71763,293.83067 C -166.78557,291.28618 -168.79139,289.14105 -171.048,289.14105 C -171.95806,289.14105 -173.94071,289.70751 -175.60297,290.53863 C -176.75449,288.74172 -177.77131,286.37835 -177.77131,285.08753 C -177.77131,283.56922 -176.26229,281.7816 -172.01378,281.7816 C -170.82976,281.7816 -169.72003,281.88375 -168.68463,282.07877 C -167.85811,282.23197 -167.16164,282.4177 -166.40945,282.71024 C -166.46982,282.60808 -166.50232,282.3852 -166.50232,282.1716 C -166.50232,281.58658 -165.97301,280.9644 -163.97179,280.9644 C -160.48012,280.9644 -156.89559,282.11592 -152.49846,282.11592 C -151.3609,282.11592 -150.59014,282.07877 -149.92614,281.80017 C -150.20938,282.67309 -151.44913,283.96387 -152.58204,285.0086 C -151.88557,285.96509 -150.06544,288.26813 -150.06544,291.99197 C -150.06544,297.96774 -154.00752,302.90346 -154.00752,308.95352 C -154.00752,312.5427 -151.24018,315.70933 -150.41369,317.59447"
         style="fill:#000000;fill-rule:evenodd;stroke:none"
         id="path3642" />
    </g>
  </g>
</svg>
