<?xml version="1.0" encoding="UTF-8" standalone="no"?>
<svg xmlns:rdf="http://www.w3.org/1999/02/22-rdf-syntax-ns#" xmlns:cc="http://creativecommons.org/ns#" xmlns:dc="http://purl.org/dc/elements/1.1/" width="150" xmlns="http://www.w3.org/2000/svg" version="1.1" height="54.32">
 <g transform="translate(-356.5 -243.11)">
  <path fill="#6dacde" d="m446.46 243.11-3.0417-0.00032-11.218 18.055-11.219-18.055h-3.0513l0.00064 54.319h3.0506l11.219-18.055 11.218 18.055 3.0733-0.00064-0.0319-0.0449 0.00032-54.273z"/>
  <path fill="#938647" d="m417.93 243.11h-16.637l16.616 27.159-16.616 27.16h16.638l-0.00064-54.319z"/>
  <path fill="#6d9a45" d="m463.11 243.11h-16.647l-0.00032 54.273 0.0319 0.0449 16.613-0.003-16.614-27.157 16.616-27.159z"/>
  <path fill="#bfd730" d="m486.83 243.11h-23.718l-16.616 27.159 16.615 27.157h0.007l-0.007-11.998h28.074c11.785 0 15.313-9.2835 15.313-17.368v-6.3826c-0.00064-10.631-3.8298-18.566-19.668-18.566zm4.1505 21.916c0 3.2202-1.5007 6.9254-5.4049 6.9254h-22.443v-15.366h21.016c5.0292 0 6.8318 2.0962 6.8318 5.7649v2.6755h0.00001z"/>
  <path fill="#fcb316" d="m417.91 270.27-16.616-27.159-0.007-0.00032-0.002 32.824-28.153-32.824h-16.638v54.319l16.652-0.004-0.006-32.821 28.154 32.825 16.616-27.16z"/>
 </g>
</svg>
