<?xml version="1.0" encoding="utf-8"?>
<!-- Generator: Adobe Illustrator 21.1.0, SVG Export Plug-In . SVG Version: 6.00 Build 0)  -->
<svg version="1.1" id="Layer_1" xmlns="http://www.w3.org/2000/svg" xmlns:xlink="http://www.w3.org/1999/xlink" x="0px" y="0px"
	 viewBox="0 0 500 500" style="enable-background:new 0 0 500 500;" xml:space="preserve">
<style type="text/css">
	.st0{fill:none;}
	.st1{fill:#4867A9;}
	.st2{fill:#FFFFFF;}
	.st3{fill:#263669;}
	.st4{fill:#96B4DE;}
</style>
<title>responsible-minerals-initiative-logo</title>
<g id="Layer_2">
	<g id="Layer_1-2">
		<rect class="st0" width="500" height="500"/>
		<circle class="st1" cx="245" cy="220.7" r="115"/>
		<path class="st2" d="M278.5,177.8c3,2.5,5.8,5.3,8.2,8.4c2.2,0.2,4.4,0.9,6.3,1.9l6.5,3.3c-6-11.5-15.3-20.9-26.6-27l3.7,7.2
			C277.6,173.5,278.2,175.6,278.5,177.8"/>
		<path class="st2" d="M286.6,255.5c-2.4,3.1-5.2,5.9-8.2,8.4c-0.2,2.2-0.9,4.2-1.9,6.2l-3.7,7.2c11.4-6.1,20.7-15.5,26.6-27
			l-6.5,3.4C291,254.6,288.8,255.3,286.6,255.5"/>
		<path class="st2" d="M198.3,186.6c3.2-4.2,7-7.9,11.3-11c0.3-1.4,0.8-2.7,1.5-4l4.5-8.8c-13.3,6.3-24.1,16.9-30.6,30.2l9.6-4.9
			C195.8,187.5,197,187,198.3,186.6"/>
		<path class="st2" d="M209.6,266c-4.2-3.1-8-6.8-11.2-11c-1.3-0.3-2.5-0.8-3.7-1.4l-9.6-4.9c6.4,13.2,17.2,23.9,30.5,30.1l-4.5-8.8
			C210.4,268.7,209.9,267.3,209.6,266"/>
		<path class="st2" d="M318.3,219l-13.9-7.1l-7.1-3.7l0,0l-11.6-5.9c-0.5-0.3-1.1-0.3-1.6-0.1c5.5,11.8,5.5,25.4,0,37.2
			c0.5,0.2,1.1,0.2,1.6-0.1l11.5-5.9l4.1-2.1l16.9-8.7c1-0.5,1.4-1.7,0.9-2.7C319,219.5,318.7,219.2,318.3,219"/>
		<path class="st2" d="M186.9,231.6l15,7.7c0.5,0.3,1.1,0.3,1.6,0.1c-5.5-11.8-5.5-25.4,0-37.2c-0.5-0.2-1.1-0.2-1.6,0.1l-14.1,7.3
			l-8.8,4.5l-9.6,5c-1,0.5-1.4,1.7-0.9,2.7c0.2,0.4,0.5,0.7,0.9,0.9l9.7,5L186.9,231.6z"/>
		<path class="st2" d="M243.8,265.2c-6.4,0-12.8-1.4-18.6-4.1c-0.2,0.5-0.2,1.1,0.1,1.6l6.7,13.1l0,0l4.5,8.7l5.5,10.7
			c0.5,1,1.7,1.4,2.7,0.9c0.4-0.2,0.7-0.5,0.9-0.9l5.7-11l2-3.8l9.1-17.7c0.3-0.5,0.3-1.1,0.1-1.6
			C256.6,263.8,250.3,265.2,243.8,265.2"/>
		<path class="st3" d="M99.8,174.9c-1.1,3.3-4.7,5.2-8,4.1s-5.2-4.7-4.1-8c1.1-3.3,4.7-5.2,8-4.1c0,0,0,0,0.1,0
			C99.1,168,100.9,171.6,99.8,174.9z"/>
		<path class="st3" d="M389.5,174.9c-1.1-3.3,0.7-6.9,4.1-8c3.3-1.1,6.9,0.7,8,4.1s-0.7,6.9-4.1,8c0,0,0,0,0,0
			C394.2,180,390.7,178.2,389.5,174.9z"/>
		<path class="st3" d="M245.6,379.5c-3.5,0-6.4-2.8-6.4-6.3c0-3.5,2.8-6.4,6.3-6.4c3.5,0,6.4,2.8,6.4,6.3c0,0,0,0,0,0
			C251.8,376.6,249,379.4,245.6,379.5z"/>
		<path class="st4" d="M243.8,176.4c6.4,0,12.8,1.4,18.6,4.1c0.2-0.5,0.2-1.1-0.1-1.6l-8.4-16.3l-2.7-5.3l-5.6-11
			c-0.5-1-1.7-1.4-2.7-0.9c-0.4,0.2-0.7,0.5-0.9,0.9l-7.4,14.3l-2.6,5.1l-6.8,13.1c-0.3,0.5-0.3,1.1-0.1,1.6
			C231.1,177.8,237.4,176.4,243.8,176.4"/>
		<path class="st2" d="M199.3,440.3h7.1v1.4H201v3.7h5.1v1.4H201v5.4h-1.7L199.3,440.3z"/>
		<path class="st2" d="M211,443.8c3.3,0,4.1,2.6,4.1,4.3c0,2.4-1.4,4.4-4.2,4.4s-4.1-1.9-4.1-4.3C206.8,446.2,207.7,443.8,211,443.8
			z M210.9,451.4c1.2,0,2.5-0.8,2.5-3.3c0-2.1-1-3.1-2.4-3.1c-1,0-2.6,0.6-2.6,3.2C208.4,449.8,209.1,451.4,210.9,451.4L210.9,451.4
			z"/>
		<path class="st2" d="M216.9,445.6c0-0.6,0-1.1-0.1-1.7h1.6v1.6c0.3-0.9,1.1-1.6,2-1.6c0.4,0,0.7,0,1.1,0v1.5
			c-0.1,0-0.2-0.1-0.3-0.1c-0.1,0-0.3,0-0.4,0c-1.8,0-2.3,1.1-2.3,2.5v4.4h-1.6L216.9,445.6z"/>
		<path class="st2" d="M222.5,445.1V444h1.6v1.2c0.5-0.9,1.5-1.5,2.6-1.4c1.1-0.1,2.2,0.5,2.7,1.5c0.6-1,1.6-1.6,2.8-1.5
			c1.5-0.1,2.9,1,3,2.5c0,0.1,0,0.3,0,0.4v5.6h-1.6v-5.3c0-0.4-0.1-0.9-0.3-1.2c-0.4-0.5-1-0.8-1.6-0.7c-0.7,0-1.4,0.3-1.8,0.9
			c-0.3,0.5-0.4,1.2-0.4,1.8v4.6h-1.6v-5.5c0.1-0.9-0.6-1.7-1.5-1.8c-0.1,0-0.2,0-0.3,0c-0.7,0-1.4,0.3-1.8,0.9
			c-0.3,0.5-0.4,1.1-0.4,1.7v4.7h-1.6L222.5,445.1z"/>
		<path class="st2" d="M238.4,448.4c0,1.7,0.7,3,2.4,3c1,0.1,1.9-0.7,1.9-1.6c0,0,0,0,0-0.1h1.6c0,0.6-0.3,1.3-0.7,1.7
			c-0.7,0.8-1.8,1.2-2.9,1.1c-2.6,0-3.8-1.6-3.8-4.2c0-1.6,0.3-3,1.6-3.9c0.7-0.4,1.5-0.6,2.3-0.6c3.7,0,3.6,3.3,3.6,4.6
			L238.4,448.4z M242.8,447.3c0-0.8-0.1-2.4-2-2.4c-1.2,0-2.2,0.9-2.3,2.2c0,0.1,0,0.2,0,0.3H242.8z"/>
		<path class="st2" d="M246.1,445.6c0-0.6,0-1.1-0.1-1.7h1.6v1.6c0.3-0.9,1.1-1.6,2-1.6c0.4,0,0.7,0,1.1,0v1.5
			c-0.1,0-0.2-0.1-0.3-0.1c-0.1,0-0.3,0-0.4,0c-1.8,0-2.3,1.1-2.3,2.5v4.4H246L246.1,445.6z"/>
		<path class="st2" d="M251.8,440.4h1.6v11.9h-1.6V440.4z"/>
		<path class="st2" d="M259.4,452.3l-1.2,3.1h-1.6l1.2-3.2l-3.4-8.2h1.8l2.6,6.5l2.6-6.5h1.7L259.4,452.3z"/>
		<path class="st2" d="M266.8,443.9h1.5v-1.7l1.5-0.5v2.2h1.9v1.1h-1.9v5c0,0.4,0,1.1,1.1,1.1c0.2,0,0.5,0,0.7-0.1v1.2
			c-0.4,0.1-0.9,0.1-1.3,0.1c-1.4,0-2.1-0.4-2.1-1.8v-5.5h-1.5L266.8,443.9z"/>
		<path class="st2" d="M272.9,440.4h1.6v4.8c0.6-0.9,1.6-1.4,2.7-1.4c1-0.1,2,0.4,2.6,1.3c0.3,0.6,0.3,1.3,0.3,1.9v5.2h-1.6v-4.9
			c0-0.7,0-2.3-1.8-2.3c-0.8,0-1.6,0.4-2,1.1c-0.2,0.6-0.3,1.2-0.3,1.8v4.4h-1.6V440.4z"/>
		<path class="st2" d="M283.3,448.4c0,1.7,0.7,3,2.4,3c1,0.1,1.9-0.7,1.9-1.7c0,0,0,0,0-0.1h1.5c0,0.6-0.3,1.3-0.7,1.7
			c-0.7,0.8-1.8,1.2-2.9,1.1c-2.6,0-3.8-1.6-3.8-4.2c0-1.6,0.3-3,1.6-3.9c0.7-0.4,1.5-0.6,2.3-0.6c3.7,0,3.6,3.3,3.6,4.6
			L283.3,448.4z M287.6,447.3c0-0.8-0.1-2.4-2-2.4c-1.2,0-2.2,0.9-2.3,2.2c0,0.1,0,0.2,0,0.3H287.6z"/>
		<path class="st2" d="M140.5,463.3c-0.1-1.2-1.2-2.2-2.4-2.1c0,0-0.1,0-0.1,0c-2.9,0-3.4,2.9-3.4,4.9c0,2.2,0.6,4.7,3.4,4.7
			c0.7,0,1.4-0.2,1.9-0.7c0.3-0.3,0.5-0.8,0.6-1.2h1.8c-0.2,2.3-2.4,3.3-4.4,3.3c-4.2,0-5-3.7-5-6c0-2.5,1-6.2,5.2-6.2
			c1.7,0,4.1,0.7,4.3,3.4L140.5,463.3z"/>
		<path class="st2" d="M147.2,463.5c3.3,0,4.1,2.6,4.1,4.3c0,2.4-1.4,4.4-4.2,4.4s-4.1-1.9-4.1-4.3C143,465.9,144,463.5,147.2,463.5
			z M147.1,471.2c1.2,0,2.5-0.8,2.5-3.3c0-2.1-1-3.1-2.4-3.1c-1,0-2.6,0.6-2.6,3.2C144.7,469.6,145.4,471.1,147.1,471.2L147.1,471.2
			z"/>
		<path class="st2" d="M153.1,464.7v-1h1.6v1.3c0.5-1,1.5-1.6,2.6-1.5c1.5-0.1,2.9,1,3,2.5c0,0.1,0,0.2,0,0.3v5.6h-1.6v-5.3
			c0.1-0.5-0.1-1-0.4-1.4c-0.4-0.4-0.9-0.6-1.5-0.6c-1.2,0-2.2,1-2.2,2.2c0,0.1,0,0.2,0,0.2v4.8h-1.6L153.1,464.7z"/>
		<path class="st2" d="M166.6,461.3c-0.3,0-0.6,0-0.9,0c-1.2,0-1.2,0.6-1.2,1.2v1.3h1.9v1.1h-1.9v7.1h-1.5v-7.1h-1.6v-1.1h1.6v-0.9
			c-0.1-0.7,0-1.4,0.4-2c0.5-0.6,1.3-1,2.1-0.9c0.4,0,0.9,0.1,1.3,0.1L166.6,461.3z"/>
		<path class="st2" d="M167.3,460.1h1.6V472h-1.6V460.1z"/>
		<path class="st2" d="M171.1,460.2h1.9v1.7h-1.9V460.2z M171.2,463.8h1.6v8.2h-1.6V463.8z"/>
		<path class="st2" d="M179.9,466.4c0.1-0.9-0.6-1.7-1.5-1.7c0,0-0.1,0-0.1,0c-2.1,0-2.1,2.5-2.1,3.1c0,1.7,0.4,3.3,2.1,3.3
			c0.9,0,1.8-0.7,1.8-1.6c0-0.1,0-0.1,0-0.2h1.6c-0.1,1.7-1.5,3.1-3.2,3c0,0-0.1,0-0.1,0c-1,0-2-0.4-2.7-1.1c-0.7-0.9-1.1-2-1-3.2
			c0-3.5,2.1-4.5,3.8-4.5c1,0,1.9,0.3,2.5,1c0.4,0.5,0.7,1.2,0.7,1.9L179.9,466.4z"/>
		<path class="st2" d="M181.5,463.7h1.5V462l1.5-0.5v2.2h1.9v1.1h-1.9v5c0,0.4,0,1.1,1.1,1.1c0.2,0,0.5,0,0.7-0.1v1.1
			c-0.4,0.1-0.9,0.1-1.3,0.1c-1.4,0-2.1-0.4-2.1-1.8v-5.5h-1.5L181.5,463.7z"/>
		<path class="st2" d="M186.8,467.1h4.1v1.2h-4.1V467.1z"/>
		<path class="st2" d="M192.5,460.1h7.1v1.4h-5.4v3.7h5.1v1.4h-5.1v5.4h-1.7V460.1z"/>
		<path class="st2" d="M200.7,465.4c0-0.6,0-1.1-0.1-1.7h1.6v1.6c0.3-0.9,1.1-1.6,2-1.6c0.4,0,0.7,0,1.1,0v1.5
			c-0.1,0-0.2-0.1-0.3-0.1c-0.1,0-0.3,0-0.4,0c-1.8,0-2.3,1.1-2.3,2.5v4.3h-1.6L200.7,465.4z"/>
		<path class="st2" d="M207.3,468.2c0,1.7,0.7,3,2.4,3c1,0.1,1.9-0.7,1.9-1.6c0,0,0,0,0-0.1h1.6c0,0.6-0.3,1.3-0.7,1.7
			c-0.7,0.8-1.8,1.2-2.9,1.1c-2.6,0-3.8-1.6-3.8-4.2c0-1.6,0.3-3,1.6-3.9c0.7-0.4,1.5-0.6,2.3-0.6c3.7,0,3.6,3.3,3.6,4.6
			L207.3,468.2z M211.6,467.1c0-0.8-0.1-2.4-2-2.4c-1.2,0-2.2,0.9-2.3,2.2c0,0.1,0,0.2,0,0.3H211.6z"/>
		<path class="st2" d="M215.8,468.2c0,1.7,0.7,3,2.4,3c1,0.1,1.9-0.7,1.9-1.6c0,0,0,0,0-0.1h1.6c0,0.6-0.3,1.3-0.7,1.7
			c-0.7,0.8-1.8,1.2-2.9,1.1c-2.6,0-3.8-1.6-3.8-4.2c0-1.6,0.3-3,1.6-3.9c0.7-0.4,1.5-0.6,2.3-0.6c3.7,0,3.6,3.3,3.6,4.6
			L215.8,468.2z M220.1,467.1c0-0.8-0.1-2.4-2-2.4c-1.2,0-2.2,0.9-2.3,2.2c0,0.1,0,0.2,0,0.3H220.1z"/>
		<path class="st2" d="M228.4,468.5c0,0.8,0.1,2.4,2.9,2.4c2.5,0,2.8-1.5,2.8-2.1c0-1.3-1.1-1.6-2.7-2c-1.1-0.2-2.2-0.5-3.2-1.1
			c-0.8-0.5-1.3-1.4-1.2-2.3c0-2.4,2.3-3.5,4.5-3.5c1.2-0.1,2.4,0.4,3.4,1.2c0.5,0.6,0.7,1.3,0.7,2h-1.7c-0.1-1.5-1.3-1.8-2.5-1.8
			c-1.6,0-2.6,0.7-2.6,1.9s0.7,1.4,2.1,1.8c2.8,0.7,3.1,0.8,3.8,1.2c0.8,0.5,1.2,1.4,1.2,2.4c0,2.1-1.6,3.7-4.7,3.7
			c-0.9,0-2.8-0.1-3.7-1.4c-0.5-0.7-0.7-1.6-0.7-2.4L228.4,468.5z"/>
		<path class="st2" d="M240.9,463.5c3.3,0,4.1,2.6,4.1,4.3c0,2.4-1.4,4.4-4.2,4.4s-4.1-1.9-4.1-4.3
			C236.7,465.9,237.6,463.5,240.9,463.5z M240.8,471.2c1.2,0,2.5-0.8,2.5-3.3c0-2.1-1-3.1-2.4-3.1c-1,0-2.6,0.6-2.6,3.2
			C238.3,469.6,239,471.1,240.8,471.2L240.8,471.2z"/>
		<path class="st2" d="M248.1,463.8v5.3c0,0.8,0.2,1.8,1.8,1.8c0.8,0,1.5-0.3,1.9-0.9c0.3-0.5,0.4-1,0.4-1.5v-4.7h1.6v6.7
			c0,0.2,0,1.1,0,1.5h-1.6v-1.4c-0.5,1-1.5,1.6-2.6,1.5c-2,0-3-1.2-3-2.8v-5.6L248.1,463.8z"/>
		<path class="st2" d="M256.2,465.4c0-0.6,0-1.1-0.1-1.7h1.6v1.6c0.3-0.9,1.1-1.6,2-1.6c0.4,0,0.7,0,1.1,0v1.5
			c-0.1,0-0.2-0.1-0.3-0.1c-0.1,0-0.3,0-0.5,0c-1.8,0-2.3,1.1-2.3,2.5v4.3h-1.6L256.2,465.4z"/>
		<path class="st2" d="M266.6,466.4c0.1-0.9-0.6-1.7-1.5-1.7c0,0-0.1,0-0.1,0c-2.1,0-2.1,2.5-2.1,3.1c0,1.7,0.4,3.3,2.1,3.3
			c0.9,0,1.8-0.7,1.8-1.6c0-0.1,0-0.1,0-0.2h1.6c-0.1,1.7-1.5,3.1-3.2,3c0,0-0.1,0-0.1,0c-1,0-2-0.4-2.7-1.1c-0.7-0.9-1.1-2-1-3.2
			c0-3.5,2.1-4.5,3.8-4.5c1,0,1.9,0.3,2.5,1c0.4,0.5,0.7,1.2,0.7,1.9L266.6,466.4z"/>
		<path class="st2" d="M269.3,460.2h1.9v1.7h-1.9V460.2z M269.5,463.8h1.5v8.2h-1.5L269.5,463.8z"/>
		<path class="st2" d="M273.4,464.7v-1h1.5v1.3c0.5-1,1.5-1.6,2.6-1.5c1.5-0.1,2.9,1,3,2.5c0,0.1,0,0.2,0,0.3v5.6H279v-5.3
			c0.1-0.5-0.1-1-0.5-1.4c-0.4-0.4-0.9-0.6-1.5-0.6c-1.2,0-2.2,1-2.2,2.2c0,0.1,0,0.2,0,0.2v4.8h-1.5L273.4,464.7z"/>
		<path class="st2" d="M284.3,472.7c0.1,0.9,0.5,1.6,1.9,1.6c2.2,0,2.2-1.6,2.2-3.8c-0.6,1-1.6,1.5-2.7,1.4c-1,0.1-1.9-0.3-2.5-1
			c-0.7-0.9-1-2-0.9-3c0-2.8,1.6-4.2,3.7-4.2c1-0.1,2,0.4,2.6,1.2v-1.1h1.5v1.5v5.2c0,2-0.1,2.8-0.4,3.4c-0.7,1.3-2.3,1.5-3.5,1.5
			c-3.3,0-3.4-1.5-3.5-2.7L284.3,472.7z M287.9,469.9c0.5-0.7,0.7-1.5,0.6-2.4c0.1-0.7-0.2-1.5-0.6-2.1c-0.5-0.5-1.1-0.7-1.8-0.7
			c-2,0-2.2,2-2.2,3c0,1.3,0.4,3,2.3,3C286.8,470.8,287.4,470.5,287.9,469.9L287.9,469.9z"/>
		<path class="st2" d="M296.1,460.1h1.6V472h-1.6V460.1z"/>
		<path class="st2" d="M300.1,464.7v-1h1.5v1.3c0.5-1,1.5-1.6,2.6-1.5c1.5-0.1,2.9,1,3,2.5c0,0.1,0,0.2,0,0.3v5.6h-1.6v-5.3
			c0.1-0.5-0.1-1-0.5-1.4c-0.4-0.4-0.9-0.6-1.5-0.6c-1.2,0-2.2,1-2.2,2.2c0,0.1,0,0.2,0,0.2v4.8h-1.5L300.1,464.7z"/>
		<path class="st2" d="M309.3,460.2h1.9v1.7h-1.9V460.2z M309.5,463.8h1.5v8.2h-1.5L309.5,463.8z"/>
		<path class="st2" d="M312.1,463.7h1.5V462l1.5-0.5v2.2h1.9v1.1h-1.9v5c0,0.4,0,1.1,1.1,1.1c0.2,0,0.5,0,0.7-0.1v1.1
			c-0.4,0.1-0.9,0.1-1.3,0.1c-1.4,0-2.1-0.4-2.1-1.8v-5.5h-1.5L312.1,463.7z"/>
		<path class="st2" d="M318.1,460.2h1.9v1.7h-1.9V460.2z M318.2,463.8h1.5v8.2h-1.5V463.8z"/>
		<path class="st2" d="M327.2,472c-0.1-0.4-0.2-0.8-0.1-1.2c-0.5,1-1.5,1.6-2.6,1.5c-1.9,0-2.9-1.1-2.9-2.4c0-1,0.6-1.9,1.5-2.4
			c0.9-0.4,1.9-0.6,2.9-0.5c0.4,0,0.6,0,1.1,0c0-1,0-1.5-0.3-1.8c-0.4-0.4-0.9-0.6-1.4-0.5c-1.6,0-1.6,1.1-1.7,1.4H322
			c0-0.6,0.2-1.1,0.6-1.6c0.7-0.6,1.7-1,2.7-0.9c1.2,0,2.5,0.4,2.9,1.2c0.2,0.4,0.3,0.8,0.3,1.3l-0.1,4c0,0.7,0,1.4,0.1,2.1
			L327.2,472z M326.1,468c-0.6,0-3,0-3,1.7c0,0.5,0.3,1.4,1.7,1.4c0.7,0,1.4-0.3,1.8-0.9c0.4-0.7,0.5-1.5,0.4-2.2
			C326.7,468,326.4,468,326.1,468z"/>
		<path class="st2" d="M329.4,463.7h1.5V462l1.5-0.5v2.2h1.9v1.1h-1.9v5c0,0.4,0,1.1,1.1,1.1c0.2,0,0.5,0,0.7-0.1v1.1
			c-0.4,0.1-0.9,0.1-1.3,0.1c-1.4,0-2.1-0.4-2.1-1.8v-5.5h-1.5L329.4,463.7z"/>
		<path class="st2" d="M335.3,460.2h1.9v1.7h-1.9V460.2z M335.5,463.8h1.5v8.2h-1.5L335.5,463.8z"/>
		<path class="st2" d="M338.5,463.8h1.7l2.6,6.6l2.6-6.6h1.7l-3.6,8.2h-1.6L338.5,463.8z"/>
		<path class="st2" d="M349.2,468.2c0,1.7,0.7,3,2.4,3c1,0.1,1.9-0.7,1.9-1.7c0,0,0,0,0-0.1h1.5c0,0.6-0.3,1.3-0.7,1.7
			c-0.7,0.8-1.8,1.2-2.9,1.1c-2.6,0-3.8-1.6-3.8-4.2c0-1.6,0.3-3,1.6-3.9c0.7-0.4,1.5-0.6,2.3-0.6c3.7,0,3.6,3.3,3.6,4.6
			L349.2,468.2z M353.5,467.1c0-0.8-0.1-2.4-2-2.4c-1.2,0-2.2,0.9-2.3,2.2c0,0.1,0,0.2,0,0.3H353.5z"/>
		<path class="st4" d="M69.7,197.7l0.3-4.9l40.9,2.3l-0.5,8.4L75.4,212v0.1l33.8,12.4l-0.5,8.5l-40.9-2.3l0.3-5.2l36.4,2.1v-0.1
			L68.7,214l0.3-5l37-9.2v-0.1L69.7,197.7z"/>
		<path class="st4" d="M70.9,250.7l-0.8-5.2l40.5-6.1l0.8,5.2L70.9,250.7z"/>
		<path class="st4" d="M121.2,278.3l-38.8,13.1l-2.3-6.8l28.5-26.7v-0.1l-33.7,11.4l-1.5-4.4l38.8-13.1l2.4,7l-28.1,26.3v0.1
			l33.2-11.2L121.2,278.3z"/>
		<path class="st4" d="M89,304.7l35-21.3l11,18l-3.9,2.4l-8.2-13.6l-11.2,6.8l7.7,12.6l-3.9,2.4l-7.7-12.6l-12.1,7.4l8.4,13.9
			l-3.9,2.4L89,304.7z"/>
		<path class="st4" d="M124.6,323.3l-13.9,12.8l-3.5-3.9l30.2-27.7l9.6,10.4c4.9,5.4,2.9,10.7-0.9,14.1c-3.6,3.3-8.1,3.8-12,0.8
			L134,330c2.6,4,2.6,6.3-3.2,12.1c-2.6,2.6-4.9,5.3-6.9,8.3l-3.7-4c1.1-3,5.2-6.4,9-10.4c3.4-3.7,0.9-6.8-0.3-8.1L124.6,323.3z
			 M127.9,320.2l5.3,5.8c2.5,2.8,6.1,1.9,8.8-0.5c2.2-2,3.6-5.3,0.9-8.3l-5.3-5.8L127.9,320.2z"/>
		<path class="st4" d="M164.2,330.2l5.4,3.8l-12.6,41.2l-4.8-3.4l3.2-9.7l-13-9.1l-8.1,6.2l-4.3-3L164.2,330.2z M164.1,336
			L164.1,336l-17.9,14.2l10.7,7.5L164.1,336z"/>
		<path class="st4" d="M166.4,379.5l16.4-37.5l4.8,2.1L173,377.4l13.8,6l-1.8,4.2L166.4,379.5z"/>
		<path class="st4" d="M200.6,379.5l-0.3,1.2c-1.2,5.4,1.8,7.9,5.1,8.7c4,0.9,7.5-0.1,8.6-4.8c2-8.9-16.1-12-13.4-24
			c1.6-7.1,7.5-9.7,14.2-8.2c7.3,1.7,10.6,6.1,8.4,14.2l-5.3-1.2c1.1-4.4,0.3-7.5-4.5-8.6c-3-0.7-6.5,0.1-7.5,4.5
			c-2,8.8,16.2,11.6,13.3,24.3c-1.9,8.4-8.4,9.8-14.9,8.3c-11.8-2.6-9.8-11.6-8.8-15.4L200.6,379.5z"/>
		<path class="st3" d="M280.7,393.6l-5.1,1l-7.9-40.2l5.1-1L280.7,393.6z"/>
		<path class="st3" d="M306.1,342.1l14.9,38.2l-6.7,2.6l-28-27.2h-0.1l12.9,33.1l-4.3,1.7l-14.9-38.2l6.9-2.7l27.6,26.9h0.1
			l-12.7-32.7L306.1,342.1z"/>
		<path class="st3" d="M337.8,370.3l-4.5,2.7L312,338.1l4.5-2.7L337.8,370.3z"/>
		<path class="st3" d="M340.3,316.9l2.9,3.5l-8.3,6.9l23.3,28l-4,3.3l-23.3-28l-8.3,6.9l-2.9-3.5L340.3,316.9z"/>
		<path class="st3" d="M376.2,337.5l-3.5,3.9l-30.4-27.4l3.5-3.9L376.2,337.5z"/>
		<path class="st3" d="M355.7,297.2l3.6-5.6l41.7,10.9l-3.1,4.9l-9.8-2.8l-8.5,13.3l6.6,7.8l-2.9,4.4L355.7,297.2z M361.5,297.1
			l-0.1,0.1l14.9,17.2l7.1-11L361.5,297.1z"/>
		<path class="st3" d="M373.8,260.4l4.2,1.7l-4.1,10l33.7,13.8l-2,4.8L371.9,277l-4.1,10l-4.2-1.7L373.8,260.4z"/>
		<path class="st3" d="M415.1,261.8l-1.3,5.1l-39.8-9.9l1.3-5.1L415.1,261.8z"/>
		<path class="st3" d="M419.2,234.4l-0.5,6.2l-41.9,8.2l0.5-5.6l36.7-6.2v-0.1L379,224.2l0.5-5.3L419.2,234.4z"/>
		<path class="st3" d="M419.7,212.4l-40.7,4.4l-2.2-21l4.5-0.5l1.7,15.8l13.1-1.4l-1.6-14.7l4.5-0.5l1.6,14.7l14.1-1.5l-1.7-16.1
			l4.5-0.5L419.7,212.4z"/>
		<path class="st3" d="M110.8,147.1l16,9.9l-2.7,4.4l-34.8-21.5l7.4-12c3.8-6.2,9.5-5.7,13.8-3c4.1,2.5,5.8,6.7,4,11.3l0.1,0.1
			c3.1-3.6,5.3-4.2,12.5-0.1c3.2,1.8,6.5,3.2,9.9,4.4l-2.9,4.6c-3.2-0.2-7.6-3.3-12.4-5.8c-4.5-2.3-6.8,1-7.7,2.5L110.8,147.1z
			 M107,144.7l4.1-6.7c2-3.2,0.2-6.4-2.9-8.3c-2.5-1.6-6.1-2-8.2,1.4l-4.2,6.7L107,144.7z"/>
		<path class="st3" d="M140.5,136.7l-29.7-28.2l14.5-15.3l3.3,3.1l-10.9,11.5l9.5,9.1l10.2-10.7l3.3,3.1l-10.2,10.7l10.3,9.8
			l11.2-11.8l3.3,3.1L140.5,136.7z"/>
		<path class="st3" d="M155.5,105.7l0.7,1c3.2,4.6,7.1,4,9.8,2.1c3.4-2.3,5-5.6,2.2-9.6c-5.2-7.5-19.7,3.8-26.7-6.3
			c-4.1-6-2.1-12.1,3.6-16c6.2-4.3,11.7-3.7,16.1,3.4l-4.5,3.1c-2.5-3.7-5.3-5.3-9.4-2.5c-2.6,1.8-4.3,4.9-1.8,8.5
			c5.1,7.4,19.5-4.1,26.9,6.6c4.9,7.1,1.6,12.8-4,16.6c-9.9,7-15.1-0.7-17.3-3.9L155.5,105.7z"/>
		<path class="st3" d="M183.6,102L168,64.2l11.2-4.6c5.1-2.1,11.3-2.5,15,6.5c3.6,8.6-2.4,13.2-6.3,14.8l-6.4,2.6l6.9,16.7
			L183.6,102z M179.9,79.1l5.3-2.2c2-0.8,6.5-3.3,4.1-9.2c-2.4-5.8-6.9-4.6-8-4.1l-6.7,2.8L179.9,79.1z"/>
		<path class="st3" d="M207,77.1l-2.2-13.3c-1.4-8.1,1.9-13.9,10.5-15.3s13.6,3,14.9,11.1l2.2,13.3c1.9,11.2-1.5,16.3-10.1,17.8
			S208.9,88.3,207,77.1z M227.2,74l-2.3-13.7c-1.4-8.5-7.3-7.8-8.9-7.5s-7.4,1.5-6,10l2.3,13.7c1.5,8.8,4.4,10.7,9.3,9.8
			S228.6,82.8,227.2,74z"/>
		<path class="st3" d="M272.3,48.5l-3.1,40.8l-7.2-0.6l-13.4-36.7h-0.1l-2.7,35.4l-4.6-0.4l3.1-40.8l7.4,0.6l13.2,36.2h0.1l2.7-35
			L272.3,48.5z"/>
		<path class="st3" d="M283,80.6l-0.4,1.1c-1.7,5.3,1.1,8,4.3,9.1c3.9,1.3,7.5,0.6,9-4.1c2.8-8.6-15-13.3-11.2-25
			c2.2-6.9,8.3-9,14.9-6.9c7.1,2.3,10,7,7.1,14.9l-5.1-1.7c1.4-4.2,1-7.5-3.7-9c-3-1-6.5-0.4-7.8,3.8c-2.8,8.6,15.1,13,11.1,25.4
			c-2.6,8.2-9.2,9-15.6,6.9c-11.5-3.6-8.7-12.4-7.4-16.1L283,80.6z"/>
		<path class="st3" d="M308.6,104l-4.6-2.4l18.8-36.4l4.6,2.4L308.6,104z"/>
		<path class="st3" d="M316.3,107.9l24.8-32.6l10.6,8.1c4.5,3.4,4.9,6.1,4.7,8.9c-0.2,1.9-0.9,3.8-2,5.3c-3.1,4.1-6.5,5.7-11.5,3.5
			l-0.2,0.2c4.2,4.1,4.1,8.4,0.8,12.9c-6.4,8.4-13.1,4.5-16.8,1.7L316.3,107.9z M323.2,107.4l5.9,4.5c4.4,3.4,8.4,1.4,10.2-1
			c4-5.2,1.4-8.5-2.8-11.8l-4.4-3.4L323.2,107.4z M334.8,92.2l6,4.6c3.3,2.4,6.4,1.6,8.8-1.5c2.1-2.7,2.2-6.1-1.3-8.7l-5.9-4.5
			L334.8,92.2z"/>
		<path class="st3" d="M341.1,128.3l30.9-26.9l3.4,3.9L348,129.2l9.9,11.4l-3.4,3L341.1,128.3z"/>
		<path class="st3" d="M356,146.2l35.3-20.7l10.7,18.2l-3.9,2.3l-8-13.7l-11.4,6.7l7.5,12.7l-3.9,2.3l-7.5-12.7l-12.2,7.2l8.2,14
			l-3.9,2.3L356,146.2z"/>
	</g>
</g>
</svg>
